<svg fill="none" height="1334" viewBox="0 0 1597 1334" width="1597" xmlns="http://www.w3.org/2000/svg" xmlns:xlink="http://www.w3.org/1999/xlink"><linearGradient id="a"><stop offset=".2152" stop-color="#d16dc3"/><stop offset=".8343" stop-color="#2200a6"/></linearGradient><linearGradient id="b" gradientUnits="userSpaceOnUse" x1="1537.07" x2="558.614" xlink:href="#a" y1="346.367" y2="1241.4"/><linearGradient id="c" gradientUnits="userSpaceOnUse" x1="1475.14" x2="749.914" xlink:href="#a" y1="175.517" y2="1116.55"/><linearGradient id="d" gradientUnits="userSpaceOnUse" x1="1372.53" x2="441.937" xlink:href="#a" y1="249.584" y2="1570.57"/><linearGradient id="e" gradientUnits="userSpaceOnUse" x1="600.274" x2="765.111" y1="259.678" y2="441.912"><stop offset="0" stop-color="#ffb8b8"/><stop offset="1" stop-color="#ff9494"/></linearGradient><linearGradient id="f"><stop offset="0" stop-color="#c7f7ff"/><stop offset="1" stop-color="#bdfffc"/></linearGradient><linearGradient id="g" gradientUnits="userSpaceOnUse" x1="1501.29" x2="1144.19" xlink:href="#f" y1="332.894" y2="307.596"/><linearGradient id="h" gradientUnits="userSpaceOnUse" x1="808.08" x2="413.502" xlink:href="#f" y1="510.538" y2="512.273"/><linearGradient id="i" gradientUnits="userSpaceOnUse" x1="1062.47" x2="799.65" xlink:href="#f" y1="117.743" y2="118.899"/><linearGradient id="j"><stop offset="0" stop-color="#00b5d1"/><stop offset="1" stop-color="#00d1c8"/></linearGradient><linearGradient id="k" gradientUnits="userSpaceOnUse" x1="1467.83" x2="1406.01" xlink:href="#j" y1="1025.12" y2="956.829"/><linearGradient id="l" gradientUnits="userSpaceOnUse" x1="1502.8" x2="1389.82" xlink:href="#j" y1="1103.43" y2="1043.3"/><linearGradient id="m" gradientUnits="userSpaceOnUse" x1="1437.48" x2="1507.7" xlink:href="#j" y1="1108.87" y2="1080.09"/><linearGradient id="n" gradientUnits="userSpaceOnUse" x1="1458.95" x2="1535.23" xlink:href="#j" y1="968.859" y2="938.012"/><linearGradient id="o" gradientUnits="userSpaceOnUse" x1="1463.14" x2="1515.24" xlink:href="#j" y1="1010.72" y2="1021.87"/><linearGradient id="p" gradientUnits="userSpaceOnUse" x1="1501.32" x2="1459.08" xlink:href="#j" y1="933.245" y2="868.014"/><linearGradient id="q" gradientUnits="userSpaceOnUse" x1="1468.18" x2="1561.74" xlink:href="#j" y1="915.22" y2="850.992"/><linearGradient id="r" gradientUnits="userSpaceOnUse" x1="1460.44" x2="1492.55" xlink:href="#j" y1="1000.75" y2="1007.66"/><linearGradient id="s" gradientUnits="userSpaceOnUse" x1="1494.64" x2="1542.47" xlink:href="#j" y1="866.768" y2="806.21"/><linearGradient id="t" gradientUnits="userSpaceOnUse" x1="1319.39" x2="1358.11" xlink:href="#j" y1="1155.64" y2="1087.14"/><linearGradient id="u" gradientUnits="userSpaceOnUse" x1="1304.91" x2="1387.81" xlink:href="#j" y1="1227.46" y2="1156.18"/><linearGradient id="v" gradientUnits="userSpaceOnUse" x1="1360.37" x2="1296.46" xlink:href="#j" y1="1219.75" y2="1208.92"/><linearGradient id="w" gradientUnits="userSpaceOnUse" x1="1316.25" x2="1246.91" xlink:href="#j" y1="1107.1" y2="1095.68"/><linearGradient id="x" gradientUnits="userSpaceOnUse" x1="1320.6" x2="1279.26" xlink:href="#j" y1="1142.76" y2="1161.82"/><linearGradient id="y" gradientUnits="userSpaceOnUse" x1="1274.27" x2="1297.24" xlink:href="#j" y1="1085.36" y2="1023.08"/><linearGradient id="z" gradientUnits="userSpaceOnUse" x1="1298.51" x2="1208.52" xlink:href="#j" y1="1064.13" y2="1028.13"/><linearGradient id="A" gradientUnits="userSpaceOnUse" x1="1315.1" x2="1289.62" xlink:href="#j" y1="1121.22" y2="1133"/><linearGradient id="B" gradientUnits="userSpaceOnUse" x1="1267.39" x2="1216.19" xlink:href="#j" y1="1028.71" y2="987.208"/><linearGradient id="C" gradientUnits="userSpaceOnUse" x1="487.488" x2="70.5984" xlink:href="#j" y1="1284.54" y2="565.162"/><linearGradient id="D"><stop offset="0" stop-color="#009bb3"/><stop offset="1" stop-color="#00b5d1"/></linearGradient><linearGradient id="E" gradientUnits="userSpaceOnUse" x1="254.347" x2="-28.4402" xlink:href="#D" y1="894.606" y2="418.247"/><linearGradient id="F" gradientUnits="userSpaceOnUse" x1="141.299" x2="-148.96" xlink:href="#D" y1="965.825" y2="476.849"/><linearGradient id="G"><stop offset="0" stop-color="#4afff8"/><stop offset="1" stop-color="#00d1c8"/></linearGradient><linearGradient id="H" gradientUnits="userSpaceOnUse" x1="178.885" x2="355.172" xlink:href="#G" y1="915.15" y2="1087.7"/><linearGradient id="I" gradientUnits="userSpaceOnUse" x1="46.1791" x2="236.547" xlink:href="#G" y1="726.059" y2="901.9"/><linearGradient id="J" gradientUnits="userSpaceOnUse" x1="575.481" x2="435.77" xlink:href="#G" y1="983.659" y2="1174.37"/><linearGradient id="K" gradientUnits="userSpaceOnUse" x1="280.001" x2="429.929" xlink:href="#j" y1="708.369" y2="1049.29"/><linearGradient id="L" gradientUnits="userSpaceOnUse" x1="188.273" x2="244.802" xlink:href="#D" y1="1002.86" y2="1021.87"/><linearGradient id="M" gradientUnits="userSpaceOnUse" x1="342.12" x2="366.35" xlink:href="#j" y1="843.043" y2="872.338"/><linearGradient id="N" gradientUnits="userSpaceOnUse" x1="318.721" x2="468.65" xlink:href="#j" y1="691.351" y2="1032.27"/><linearGradient id="O" gradientUnits="userSpaceOnUse" x1="520.626" x2="425.802" xlink:href="#D" y1="1103.83" y2="889.16"/><linearGradient id="P" gradientUnits="userSpaceOnUse" x1="71.2875" x2="221.21" xlink:href="#j" y1="800.147" y2="1141.06"/><linearGradient id="Q" gradientUnits="userSpaceOnUse" x1="158.288" x2="339.658" xlink:href="#G" y1="607.031" y2="829.607"/><linearGradient id="R" gradientUnits="userSpaceOnUse" x1="1186.35" x2="1342.5" y1="353.645" y2="480.311"><stop offset="0" stop-color="#0095c7" stop-opacity="0"/><stop offset="1" stop-color="#6bd8ff" stop-opacity=".42"/></linearGradient><linearGradient id="S"><stop offset="0" stop-color="#151875"/><stop offset="1" stop-color="#662ae6"/></linearGradient><linearGradient id="T" gradientUnits="userSpaceOnUse" x1="1331.68" x2="1184.79" xlink:href="#S" y1="1092.5" y2="1176.45"/><linearGradient id="U"><stop offset="0" stop-color="#2a5de6"/><stop offset="1" stop-color="#3a2ae6"/></linearGradient><linearGradient id="V" gradientUnits="userSpaceOnUse" x1="1198.27" x2="1242.42" xlink:href="#U" y1="628.103" y2="973.178"/><linearGradient id="W" gradientUnits="userSpaceOnUse" x1="1071.13" x2="902.601" xlink:href="#S" y1="1154.15" y2="1168.79"/><linearGradient id="X" gradientUnits="userSpaceOnUse" x1="1144.66" x2="1039.99" xlink:href="#U" y1="676.581" y2="1008.34"/><linearGradient id="Y"><stop offset="0" stop-color="#49ffb6"/><stop offset="1" stop-color="#7affc9"/></linearGradient><linearGradient id="Z" gradientUnits="userSpaceOnUse" x1="1200.65" x2="1309.76" xlink:href="#Y" y1="489.386" y2="490.87"/><linearGradient id="aa" gradientUnits="userSpaceOnUse" x1="1305.32" x2="1245.97" xlink:href="#Y" y1="687.123" y2="385.792"/><linearGradient id="ab" gradientUnits="userSpaceOnUse" x1="1294.94" x2="1370.58" xlink:href="#S" y1="371.253" y2="585.123"/><linearGradient id="ac"><stop offset="0" stop-color="#00dbff"/><stop offset="1" stop-color="#c2f8ff"/></linearGradient><linearGradient id="ad" gradientUnits="userSpaceOnUse" x1="1273.41" x2="1363.18" xlink:href="#ac" y1="259.832" y2="608.424"/><linearGradient id="ae" gradientUnits="userSpaceOnUse" x1="1027.69" x2="1215.07" xlink:href="#Y" y1="527.099" y2="527.099"/><linearGradient id="af" gradientUnits="userSpaceOnUse" x1="1271.4" x2="1053.43" xlink:href="#Y" y1="434.844" y2="491.208"/><linearGradient id="ag"><stop offset="0" stop-color="#3046bb"/><stop offset="1" stop-color="#4c30bb"/></linearGradient><linearGradient id="ah" gradientUnits="userSpaceOnUse" x1="1210.13" x2="1074.95" xlink:href="#ag" y1="127.001" y2="301.612"/><linearGradient id="ai" gradientUnits="userSpaceOnUse" x1="1067.17" x2="1275.45" xlink:href="#Y" y1="604.491" y2="481.306"/><linearGradient id="aj"><stop offset="0" stop-color="#2a5de6"/><stop offset=".2971" stop-color="#3046bb"/><stop offset="1" stop-color="#9e2ae6"/></linearGradient><linearGradient id="ak" gradientUnits="userSpaceOnUse" x1="375.362" x2="490.022" xlink:href="#aj" y1="1013.43" y2="1174.38"/><linearGradient id="al" gradientUnits="userSpaceOnUse" x1="663.05" x2="540.446" xlink:href="#U" y1="720.098" y2="1101.22"/><linearGradient id="am" gradientUnits="userSpaceOnUse" x1="687.917" x2="875.561" xlink:href="#aj" y1="1191.79" y2="1129.97"/><linearGradient id="an" gradientUnits="userSpaceOnUse" x1="694.339" x2="699.898" xlink:href="#U" y1="745.459" y2="1133.92"/><linearGradient id="ao"><stop offset=".00478469" stop-color="#ff499e"/><stop offset="1" stop-color="#f99"/></linearGradient><linearGradient id="ap" gradientUnits="userSpaceOnUse" x1="615.372" x2="708.064" xlink:href="#ao" y1="577.507" y2="594.116"/><linearGradient id="aq" gradientUnits="userSpaceOnUse" x1="760.774" x2="677.854" xlink:href="#ao" y1="680.32" y2="532.679"/><linearGradient id="ar" gradientUnits="userSpaceOnUse" x1="811.615" x2="703.301" xlink:href="#ao" y1="652.236" y2="586.337"/><linearGradient id="as" gradientUnits="userSpaceOnUse" x1="696.688" x2="676.65" xlink:href="#ag" y1="409.809" y2="492.483"/><linearGradient id="at" gradientUnits="userSpaceOnUse" x1="678.889" x2="797.425" xlink:href="#ag" y1="318.36" y2="436.335"/><linearGradient id="au" gradientUnits="userSpaceOnUse" x1="648.849" x2="767.383" xlink:href="#ag" y1="348.549" y2="466.522"/><linearGradient id="av" gradientUnits="userSpaceOnUse" x1="609.495" x2="480.891" xlink:href="#S" y1="453.3" y2="593.771"/><linearGradient id="aw" gradientUnits="userSpaceOnUse" x1="662.607" x2="479.005" xlink:href="#ac" y1="374.326" y2="614.12"/><clipPath id="ax"><path d="m0 0h1597v1334h-1597z"/></clipPath><g clip-path="url(#ax)"><path d="m187.139 1001.91c-.776-43.586 8.647-87.509 28.492-126.774 34.922-69.434 98.558-122.12 168.181-159.72 115.521-62.447 260.642-97.053 325.387-208.857 10.975-18.856 18.847-39.043 25.72-59.674 10.422-31.389 18.182-63.888 30.155-94.834 51.663-133.1 206.873-236.919 350.776-240.468 91.02-2.219 177.6 35.604 230.6 131.547 21.06 38.267 37.58 80.637 46.78 124.117 8.43 39.93 10.53 80.747 4.55 120.345-3.22 20.741-7.99 41.483-13.2 62.335-16.4 65.774-36.69 131.992-21.84 199.318 12.2 55.348 47.68 102.377 75.39 152.068 52.11 93.17 64.97 211.407-14.08 294.927-82.37 87.07-231.26 114.69-341.13 67.77-81.26-34.72-147.447-105.92-235.806-115.46-124.944-13.53-218.181 77.75-330.597 111.02-122.505 36.39-251.773-37.93-303.768-147.29-16.408-34.61-24.945-72.43-25.61-110.37z" fill="url(#b)"/><path d="m212.749 1112.17c-16.408-34.5-24.945-72.32-25.61-110.26-.776-43.586 8.647-87.509 28.492-126.774 34.922-69.434 98.558-122.12 168.181-159.72 28.603-15.418 58.98-29.172 89.579-42.814 7.871.443 15.853.665 23.725.665 135.143-.887 261.307-47.362 373.169-119.347 113.525-72.983 205.985-184.899 343.455-215.623 59.76-13.31 125.72-9.539 178.27 23.293.45 1.886.89 3.771 1.22 5.768 8.43 39.93 10.53 80.747 4.55 120.345-3.22 20.741-7.99 41.483-13.2 62.335-16.4 65.774-36.69 131.991-21.84 199.318 12.2 55.348 47.68 102.377 75.39 152.067 40.13 71.875 56.99 158.607 26.39 232.927 4.43-10.65-18.96-49.8-23.84-60.23-8.87-18.63-16.96-37.27-29.04-54.02-116.74-160.825-331.16-222.939-524.947-174.579-142.239 35.494-243.347 126.557-337.139 231.149-36.696 40.93-76.274 79.75-119.401 114.36-9.09 7.32-68.957 60.23-78.602 55.9-60.089-26.84-110.754-75.65-138.802-134.76z" fill="url(#c)"/><path d="m279.267 1200.12c1.441 1.33 2.994 2.55 4.435 3.89.111 0 .111.11.222.11 51.108 43.48 117.405 68.99 184.921 64.11 15.854-1.11 31.818-4 47.672-8.66 99.334-29.5 183.591-104.15 288.136-111.8 13.747-1 27.938-.89 42.461.78 88.359 9.54 154.546 80.74 235.806 115.46 43.02 18.3 91.91 25.29 140.58 21.74 75.61-5.54 150.44-36.49 200.55-89.51 18.07-19.08 31.38-40.04 40.47-62.11.44-1.11.88-2.33 1.33-3.44v-.11c1.77-4.66 3.43-9.32 4.88-13.98v-.11c1.44-4.77 2.77-9.43 3.88-14.31 0 0 0 0 0-.11 1.33-5.99 2.55-12.09 3.32-18.19 0-.11 0-.11 0-.22.67-4.77 1.22-9.65 1.55-14.42 0-.11 0-.22 0-.33.34-4.77.56-9.54.56-14.42 0-.11 0-.33 0-.44 0-1.11 0-2.22 0-3.33 0-.22 0-.33 0-.56 0-3.55-.11-6.98-.33-10.53 0-.11 0-.34 0-.45 0-1.11-.12-2.1-.23-3.21 0-.34 0-.56-.11-.89-.11-1.11-.11-2.11-.22-3.22 0-.11 0-.11 0-.22-.22-2.33-.44-4.66-.66-6.99 0-.11 0-.22 0-.33-.11-1-.23-2-.34-3 0-.44-.11-.77-.11-1.22-.11-.99-.22-1.99-.33-2.88 0-.33-.11-.78-.11-1.11-.44-3.1-.89-6.32-1.44-9.43-.11-.44-.22-.99-.22-1.44-.11-.89-.34-1.77-.45-2.66-.11-.55-.22-1.11-.33-1.55-.22-.89-.33-1.778-.55-2.665-.11-.444-.23-.887-.34-1.331-.33-1.553-.66-3.217-.99-4.769-.12-.555-.23-1.221-.45-1.775-.22-.777-.33-1.553-.55-2.44-.11-.666-.33-1.331-.45-1.886-.22-.776-.33-1.553-.55-2.329-.22-.666-.33-1.442-.55-2.108-.34-1.109-.56-2.218-.89-3.438-.22-.887-.44-1.664-.67-2.551-.22-.666-.44-1.331-.55-2.108-.22-.776-.44-1.441-.67-2.218-.22-.665-.44-1.331-.66-1.996-.22-.777-.44-1.553-.78-2.441-.22-.554-.33-1.22-.55-1.774-.44-1.331-.89-2.662-1.33-3.882-.22-.555-.33-1.109-.56-1.664-.33-.887-.55-1.775-.88-2.551-.22-.555-.45-1.22-.67-1.775-.33-.887-.66-1.774-.89-2.551-.22-.554-.44-1.109-.55-1.664-.44-1.331-1-2.551-1.44-3.882-.11-.333-.33-.776-.44-1.109-.45-1.109-.89-2.107-1.33-3.217-.23-.554-.45-.998-.67-1.552-.33-.888-.78-1.775-1.11-2.773-.22-.555-.44-.999-.66-1.553-.45-1.109-.89-2.108-1.44-3.217-.12-.332-.23-.665-.45-.887-.55-1.331-1.22-2.662-1.77-4.104-.22-.444-.33-.887-.56-1.22-.44-.998-.88-1.997-1.33-2.884-.22-.444-.44-.887-.66-1.442-.45-.998-1-1.996-1.44-2.995-.22-.332-.34-.776-.56-1.109-.66-1.331-1.33-2.662-1.99-3.993-.11-.333-.34-.554-.45-.776-.55-1.109-1.11-2.108-1.66-3.217-.22-.443-.44-.887-.66-1.331-.56-.998-1-1.885-1.56-2.884-.22-.443-.44-.776-.66-1.22-.78-1.331-1.44-2.662-2.22-3.993-19.07-34.162-41.8-67.105-58.09-102.265-4.44-9.65-8.43-19.411-11.64-29.393-2.22-6.655-4.1-13.421-5.55-20.409-14.85-67.327 5.44-133.433 21.84-199.318 5.21-20.742 9.98-41.594 13.2-62.336 1.88-12.311 2.99-24.845 3.32-37.379.56-20.076-.77-40.263-3.77-60.339-1.11-7.542-2.44-15.084-3.99-22.516-.44-1.885-.88-3.771-1.22-5.767-9.31-41.483-25.27-81.857-45.45-118.46-52.99-95.943-139.58-133.877-230.6-131.548-5.1.111-10.2.333-15.3.777-139.466 10.204-285.585 111.361-335.474 239.692-11.973 30.946-19.844 63.444-30.155 94.834-6.873 20.63-14.745 40.817-25.72 59.673-50.887 87.07-150.887 127.333-247.339 170.591-.11.111-.332.111-.443.222-3.659 1.663-7.317 3.327-10.976 4.991-.221.111-.332.111-.554.222-3.658 1.663-7.206 3.327-10.865 4.991-.11.111-.332.111-.443.222-3.659 1.664-7.206 3.327-10.865 4.991-.111.111-.332.111-.443.222-3.548 1.664-7.206 3.438-10.754 5.102-.111.111-.222.111-.333.222-3.547 1.775-7.206 3.549-10.753 5.324-.111 0-.222.111-.222.111-3.548 1.775-7.206 3.66-10.754 5.435 0 0-.111 0-.111.111-3.548 1.885-7.206 3.771-10.643 5.656-26.053 14.087-51.33 30.281-74.612 48.804-13.525 10.759-26.385 22.294-38.359 34.495-11.973 12.312-22.948 25.289-32.705 39.154-1.441 1.997-2.771 3.993-4.102 5.989-6.762 9.983-12.971 20.52-18.403 31.279-1.885 3.66-3.659 7.432-5.321 11.203-1.109 2.551-2.218 4.991-3.216 7.542-.776 1.886-1.552 3.771-2.217 5.768-.776 1.885-1.441 3.882-2.106 5.767-.887 2.552-1.774 5.214-2.661 7.765-9.202 28.616-13.525 58.786-12.971 88.729.665 38.05 9.202 75.76 25.61 110.26.776 1.66 1.663 3.32 2.439 4.99.221.55.554 1 .776 1.55.554 1.11 1.219 2.33 1.773 3.44.333.55.666 1.11.887 1.77.666 1.11 1.22 2.33 1.885 3.44.333.56.554 1 .887 1.55.887 1.56 1.774 3 2.55 4.44.111.11.111.22.222.33.997 1.67 1.995 3.22 2.993 4.88.222.45.554.89.776 1.22.776 1.22 1.552 2.33 2.328 3.55.333.56.665 1 .998 1.56.776 1.11 1.552 2.33 2.328 3.43.333.45.554.89.887 1.34.998 1.44 1.995 2.88 3.104 4.32.111.11.111.22.222.33 1.109 1.56 2.328 3.22 3.548 4.77.221.23.332.45.554.78.998 1.33 1.995 2.55 2.993 3.88.333.34.555.78.887 1.11.998 1.22 1.885 2.44 2.883 3.55.221.33.554.67.776 1 2.55 2.99 5.099 5.99 7.76 8.98 1.33 1.45 2.661 2.89 3.991 4.22.222.22.444.44.555.66 1.219 1.22 2.439 2.55 3.658 3.77.222.23.333.34.554.56 4.213 4.33 8.648 8.43 13.193 12.53-.111-.11 0 0 0 0zm59.645-455.201c14.413-9.76 29.712-19.077 45.898-27.729 3.215-1.775 6.541-3.438 9.756-5.213.333-.222.776-.444 1.109-.554 3.104-1.664 6.319-3.217 9.423-4.77.555-.222 1.109-.555 1.663-.776 3.104-1.553 6.319-3.106 9.424-4.659.554-.222 1.108-.554 1.552-.776 3.215-1.553 6.541-3.106 9.867-4.659.332-.111.665-.333.997-.443 14.635-6.877 29.601-13.643 44.79-20.409.11 0 .11-.111.221-.111 7.872.443 15.743.665 23.393.665 13.414-.111 26.94-.665 40.354-1.553 112.638-8.207 225.055-47.916 334.034-118.015 36.697-23.626 71.73-51.688 105.543-78.862 35.584-28.506 72.284-58.01 111.084-82.301 43.35-27.175 84.59-44.921 126.17-54.238 14.41-3.217 28.82-5.324 43.12-6.434 50.33-3.66 96.23 6.323 132.93 28.95.33 1.664.77 3.216 1.11 4.88 2.1 9.872 3.77 19.743 4.99 29.504.11 1.22.33 2.551.44 3.771 1.22 10.427 1.99 20.631 2.33 30.835.11 2.773.11 5.657.11 8.43 0 5.435-.11 10.981-.33 16.305-.56 10.426-1.56 20.741-3.11 30.835-3.32 21.629-8.54 43.59-13.19 62.113-1.55 6.323-3.22 12.756-4.77 18.856-15.08 59.008-30.6 119.902-17.07 181.239 1.11 4.991 2.44 9.871 3.88 14.752.22.554.33 1.109.55 1.664.89 2.883 1.78 5.767 2.77 8.54 11.31 32.166 29.38 62.114 47.01 91.174 7.21 11.868 14.64 24.18 21.51 36.381 1.22 2.107 2.33 4.215 3.44 6.322.22.444.44.776.66 1.22 18.4 34.828 30.6 71.653 35.37 107.037 0 .22 0 .33.11.55.55 4.55 1.11 8.99 1.44 13.42 0 .45.11.89.11 1.22.11 2.11.33 4.11.44 6.22 0 .44 0 .88.11 1.33.11 1.55.11 3.1.23 4.65 0 .89 0 1.89.11 2.78v2.99 2.55 4 1.11c0 1.44-.11 2.88-.11 4.32v.89c-.56 11.09-1.78 21.85-3.88 32.28-.12.44-.23.99-.34 1.44-.22 1.22-.55 2.44-.77 3.66-.23 1.11-.56 2.33-.78 3.44s-.55 2.33-.89 3.43c-.33 1.22-.66 2.56-.99 3.78-.12.55-.34 1.22-.56 1.77-1.11 3.88-2.33 7.76-3.77 11.54-2.66-10.87-10.64-26.51-18.96-42.15-1.99-3.77-3.65-6.99-4.65-8.99-1.11-2.33-2.11-4.54-3.22-6.87-7.54-16.09-15.3-32.61-26.05-47.48-94.23-129.88-261.2-202.753-435.586-189.997-30.82 2.218-61.641 7.209-91.463 14.641-147.56 36.824-249.777 133.211-338.247 231.816-39.911 44.48-78.824 81.75-119.179 114.13-1.441 1.11-3.991 3.33-7.428 6.22-15.743 13.31-57.428 48.69-68.182 49.46-.554 0-.665 0-.776-.11-22.283-9.98-43.348-22.96-62.305-38.48-.333-.23-.666-.56-.998-.89-1.109-.89-2.107-1.78-3.104-2.66-.665-.56-1.331-1.11-1.885-1.67-.665-.55-1.441-1.22-2.106-1.77-.776-.67-1.553-1.33-2.329-2.11-.443-.33-.886-.78-1.219-1.11-16.851-15.31-31.707-32.5-44.235-51.13 0-.11-.111-.11-.111-.22-.887-1.22-1.663-2.55-2.439-3.77-.111-.23-.332-.45-.443-.67-.776-1.22-1.552-2.44-2.328-3.66-1.331-2.22-2.661-4.44-3.992-6.66-.332-.66-.776-1.33-1.108-1.99-.444-.78-.887-1.55-1.331-2.33-.443-.89-.997-1.78-1.441-2.55-.332-.67-.776-1.44-1.108-2.11-.555-1-1.109-2.11-1.663-3.11-.333-.55-.555-1.1-.887-1.77-.776-1.66-1.663-3.22-2.439-4.88-5.987-12.53-10.976-25.73-14.856-39.27-3.88-13.31-6.652-26.95-8.426-40.7-.665-4.99-1.108-10.1-1.552-15.09 0-.11 0-.11 0-.22-.333-4.66-.554-9.43-.665-14.08-.665-34.389 5.211-68.441 16.962-100.052.998-2.551 1.885-4.991 2.993-7.542 2.55-6.212 5.322-12.312 8.315-18.302 16.408-32.609 40.133-63.333 70.621-91.173 10.199-9.318 21.175-18.413 32.816-27.064 5.321-4.548 11.308-8.874 17.516-12.978zm1050.658-384.882c-39.58-23.847-86.36-31.611-132.48-28.284-14.63 1.109-29.16 3.217-43.46 6.433-137.47 30.724-229.931 142.64-343.456 215.623-100.665 64.776-212.97 108.921-333.036 117.683-13.304.999-26.719 1.553-40.133 1.553-6.43 0-12.861-.111-19.291-.444 1.109-.554 2.218-.998 3.437-1.552 89.468-39.931 182.039-81.192 229.933-163.825 9.645-16.748 17.627-35.272 25.831-60.006 3.991-12.09 7.65-24.513 11.197-36.492 5.654-19.299 11.641-39.264 18.958-58.231 23.725-61.227 71.175-119.236 133.37-163.27 61.53-43.48 132.59-70.211 200.33-75.202 5.1-.333 10.2-.666 15.19-.776 47.45-1.221 90.69 8.54 128.49 28.727 41.35 22.073 75.17 56.346 100.22 101.822 20.4 37.157 35.92 77.087 44.9 116.241zm-998.995 898.543c-11.862-3.22-23.503-7.21-34.922-12.09 16.74-5.44 66.186-49.03 74.279-55.57 43.126-34.5 82.815-73.43 119.401-114.36 93.791-104.593 194.899-195.656 337.138-231.15 30.044-7.542 60.532-12.311 91.13-14.53 166.739-12.201 335.139 53.129 433.809 189.11 12.09 16.75 20.29 35.28 29.05 54.02 4.21 8.87 21.84 38.82 24.17 53.91-9.31 24.73-23.5 47.25-42.24 66.99-24.28 25.62-54.55 46.59-90.02 62.11-33.71 14.76-71.51 24.07-109.2 26.73-49.78 3.66-98.01-3.77-139.58-21.62-30.6-13.09-59.54-31.62-87.474-49.58-46.009-29.51-93.57-60.01-148.891-66.11-14.08-1.55-28.492-1.78-42.794-.78-62.416 4.55-118.624 33.39-172.948 61.23-37.139 19.08-75.388 38.71-115.631 50.58-15.3 4.54-31.264 7.43-47.229 8.65-25.831 2-52.106-.56-78.048-7.54z" fill="url(#d)"/><path d="m656.76 315.448c10.421-22.294 30.488-15.306 36.696.444 6.32 15.972-16.297 51.133-16.297 51.133s-40.576-10.205-46.895-26.177c-6.209-15.75 3.658-34.606 26.496-25.4z" fill="url(#e)"/><path d="m1139.91 368.245c1.66-16.527 25.94-13.865 38.02-11.979 3.55.554 16.52 5.213 19.74 3.438 3.43-1.774 5.54-10.093 6.21-14.086 1.88-12.756 19.95-13.643 31.37-4.991-.78-11.203 9.42-28.617 25.28-13.865 3.88-10.759 11.08-27.618 16.18-37.601 9.98-19.632 18.41-34.162 40.25-40.707 22.39-6.766 50.22-4.325 67.96 12.312 12.3 11.425 10.2 25.733 9.86 40.929 12.75-8.319 26.72-1.331 34.37 11.091 7.76 12.756 6.76 23.182 2.99 37.047 6.44-6.434 17.52.332 22.95 5.324 9.65 8.651 7.99 29.725 5.55 33.608 37.14-5.879 35.25 20.408 35.25 20.408l-353.88-25.4s-3.1-5.435-2.1-15.528z" fill="url(#g)" opacity=".61"/><path d="m413.857 579.32c.443-18.301 27.272-17.414 40.798-16.305 3.88.333 18.625 4.326 21.951 2.219 3.547-2.219 5.321-11.536 5.654-15.972.998-14.198 20.842-16.638 34.035-8.097-1.774-12.312 7.982-32.166 26.608-17.303 3.436-12.09 9.977-31.279 14.745-42.703 9.423-22.406 17.405-39.043 40.798-48.028 24.057-9.206 54.877-8.873 75.72 7.876 14.412 11.535 13.304 27.507 14.301 44.145 13.304-10.205 29.269-3.772 38.692 9.317 9.645 13.31 9.313 24.956 6.319 40.484 6.541-7.542 19.291-1.109 25.721 3.882 11.308 8.763 11.197 32.056 8.869 36.492 40.244-9.539 40.465 19.522 40.465 19.522l-391.018 1.331c-.111 0-3.991-5.768-3.658-16.86z" fill="url(#h)" opacity=".61"/><path d="m799.886 163.492c.332-12.201 18.181-11.646 27.161-10.87 2.55.222 12.417 2.884 14.635 1.442 2.328-1.553 3.547-7.653 3.769-10.648.665-9.428 13.858-11.092 22.727-5.324-1.219-8.208 5.322-21.407 17.738-11.535 2.218-8.097 6.652-20.853 9.757-28.5062 6.208-14.9738 11.64-26.0655 27.161-31.9441 16.076-6.1005 36.475-5.8786 50.444 5.2131 9.645 7.6533 8.869 18.3013 9.534 29.3932 8.869-6.7661 19.508-2.4404 25.828 6.211 6.43 8.874 6.21 16.638 4.22 26.953 4.32-4.991 12.86-.776 17.07 2.551 7.54 5.879 7.43 21.296 5.88 24.291 26.82-6.322 26.94 12.977 26.94 12.977l-260.425.888c-.111.221-2.661-3.661-2.439-11.092z" fill="url(#i)" opacity=".61"/><path d="m1449 970.414c-5.33-20.742-13.09-41.927-29.49-57.788-22.95-21.962-82.38-8.652-77.05 25.733 3.76 24.623 56.09 54.46 78.49 64.891 7.98 3.66 30.48 13.64 37.03 6.21.11-.34.22-.78.33-1.11.89-3.88 1.77-7.77 2.66-11.649-7.65-6.655-9.76-17.192-11.97-26.287z" fill="url(#k)"/><path d="m1384.92 1054.6c6.2 11.54 49.77 17.75 63.19 16.08.33-2.88.66-5.88 1-8.76-7.65-15.2-76.94-31.5-64.19-7.32z" fill="url(#l)"/><path d="m1525.6 1050.61c-28.82 2.88-52.21 18.96-72.17 31.39-.22 3.55-.44 7.1-.55 10.64 31.48 4.55 74.39 9.88 100.99-5.32 29.05-16.64-1.66-39.49-28.27-36.71z" fill="url(#m)"/><path d="m1557.09 952.667c19.4-4.215 58.09-41.372 30.04-48.36-35.14-8.651-77.27 28.839-104.54 33.275-1.11 3.328-2.22 6.655-3.33 10.094 24.95 11.535 52.44 10.315 77.83 4.991z" fill="url(#n)"/><path d="m1509.86 1025.54c9.42-6.88 9.65-19.3-2-22.52-17.29-4.766-37.91 7.55-47.11 19.3-.33 1.78-.56 3.44-.89 5.22 14.75-3.44 35.48 8.65 50-2z" fill="url(#o)"/><path d="m1488.24 907.08c.89.111 1.66.333 2.55.444.45-4.88 2.44-7.764.45-12.201-5.66-12.755-7.21-29.282-15.86-40.263-10.09-12.866-35.92-20.741-39.58 2.884-3.88 28.838 32.82 36.381 52.44 49.136z" fill="url(#p)"/><path d="m1509.75 873.14c9.31 18.301 52.99 4.991 62.42-16.749 7.31-16.526-1.89-11.868-16.97-8.873-19.06 3.882-26.83 7.986-42.35 18.523-.88 1.664-1.66 3.327-2.55 4.991-.11.666-.33 1.442-.55 2.108z" fill="url(#q)"/><path d="m1459.53 1031.31c.33-1.78.55-3.44.89-5.22 4.54-25.28 10.75-50.241 18.62-74.643 1.11-3.328 2.22-6.655 3.33-10.093 7.76-22.628 17.07-44.811 27.82-66.44.78-1.664 1.67-3.327 2.55-4.991 4.88-9.65 10.09-19.189 15.63-28.617-.33 0-.77.111-1.21.111-.12-.111-.12-.222-.23-.333-30.48 50.246-52.77 104.041-66.29 159.606-1 3.89-1.89 7.77-2.66 11.65-3.88 17.64-6.99 35.38-9.09 53.35-.34 2.89-.67 5.88-1 8.76-3.88 36.83-5.55 96.17-5.55 96.17l10.54-16.97s-1.89-26.84-.34-57.23c.23-3.55.34-7.1.67-10.65 1.11-18.19 3.21-36.38 6.32-54.46z" fill="url(#r)"/><path d="m1525.38 837.646c18.74 7.21 26.83-18.967 26.83-18.967s-5.76-1.22-9.2-2.329c-4.77-1.553-5.21-2.662-11.31-2.218-3.66.221-15.52-3.772-15.52-3.772s-7.76 22.406 9.2 27.286z" fill="url(#s)"/><path d="m1324.83 1106.51c.55-18.3 2.99-37.38 13.75-53.68 15.07-22.63 67.07-22.63 69.06 6.98 1.44 21.19-36.47 55.91-53.21 68.77-5.88 4.55-22.84 17.08-29.71 12.2-.11-.33-.34-.55-.45-.88-1.44-3.11-2.88-6.11-4.43-9.21 5.1-6.99 4.88-16.08 4.99-24.18z" fill="url(#t)"/><path d="m1394.01 1164.63c-3 10.76-38.14 24.18-49.67 25.18-.78-2.33-1.66-4.77-2.44-7.1 3.55-14.09 58.21-40.6 52.11-18.08z" fill="url(#u)"/><path d="m1276.05 1187.7c24.5-2.99 47.12 5.99 65.96 12.64.89 2.89 1.67 5.88 2.55 8.77-25.39 9.65-60.2 22.18-85.14 14.53-27.39-8.54-6.1-33.28 16.63-35.94z" fill="url(#v)"/><path d="m1231.48 1111.94c-16.96.11-56.21-23.62-34.15-34.71 27.72-13.76 69.74 9.54 93.35 8.09 1.55 2.56 3.11 5.11 4.66 7.77-18.63 14.53-41.69 18.63-63.86 18.85z" fill="url(#w)"/><path d="m1284.47 1163.85c-9.2-3.99-11.64-14.19-2.55-19.19 13.53-7.2 33.04-.77 42.91 7.21.55 1.34 1.11 2.78 1.66 4.11-12.86.11-27.94 14.08-42.02 7.87z" fill="url(#x)"/><path d="m1280.26 1061.03c-.66.34-1.33.56-1.99.89-1.22-3.99-3.44-6.1-2.67-10.09 2.33-11.76.56-25.74 5.66-36.49 5.99-12.65 26.05-23.963 33.48-5 8.65 23.3-20.51 36.5-34.48 50.69z" fill="url(#y)"/><path d="m1255.98 1036.85c-4.32 16.97-43.24 14.09-55.1-2.33-9.2-12.42-.66-10.31 12.42-10.64 16.63-.45 23.83 1.55 38.8 7.54 1 1.22 2 2.44 2.99 3.66.34.66.56 1.22.89 1.77z" fill="url(#z)"/><path d="m1327.49 1159.31c-.56-1.34-1.11-2.78-1.66-4.11-8.43-20.19-18.3-39.82-29.49-58.78-1.56-2.56-3.11-5.22-4.66-7.77-10.75-17.41-22.62-34.16-35.59-50.13-1-1.22-1.99-2.44-2.99-3.66-5.88-7.1-11.97-14.09-18.4-20.97.33 0 .66-.11.99-.11 0-.11.11-.22.11-.33 34.82 36.16 63.42 76.87 85.15 120.57 1.55 2.99 2.99 6.1 4.43 9.2 6.54 13.98 12.42 28.18 17.63 42.71.89 2.33 1.66 4.77 2.44 7.09 10.09 29.95 17.63 48.59 17.63 48.59l-8.32 5.76s-2.22-10.2-9.09-35.16c-.78-2.88-1.66-5.88-2.55-8.76-4.54-14.86-9.76-29.73-15.63-44.14z" fill="url(#A)"/><path d="m1236.25 1010.23c-14.3 9.54-25.94-10.867-25.94-10.867s4.54-2.107 7.2-3.66c3.66-2.108 3.88-3.217 9.09-3.993 3.11-.444 12.2-6.101 12.2-6.101s10.75 17.301-2.55 24.621z" fill="url(#B)"/><path d="m137.915 940.799c1.885-3.438 2.772-8.097 2.661-14.197-.443-17.525-16.63-37.047-26.497-50.357-18.0704-24.18-63.0813-82.3-12.306-102.265 18.958-7.432 39.801 7.32 58.869 7.32 32.484 0 30.821-31.389 31.264-57.011.444-29.837-10.643-72.318 12.971-96.942 28.16-29.393 88.137-11.313 114.523 9.539 30.488 24.18 44.457 51.909 50.776 89.51 3.658 21.851 2.55 50.246 23.725 63.667 19.734 12.533 50 2.218 71.951 11.202 25.831 10.648 27.162 38.821 26.607 64.11-.776 38.045-40.244 95.833 25.056 97.053 36.363.665 103.769-43.812 103.769 22.738 0 48.244-40.688 97.054-67.406 133.874-27.162 37.38-53.658 83.08-97.228 103.38-125.055 58.23-258.535-49.92-352.77-121.57-29.2683-22.29-61.5298-48.58-83.37-78.53-20.288191-27.837-37.8048-81.632 11.419-89.285 22.838-3.328 91.13 35.05 105.986 7.764z" fill="url(#C)"/><path d="m362.526 1101.07c-9.867-58.56-23.171-123.114-36.807-181.9l-134.478-72.096 131.374 59.23c-20.843-87.736-42.018-160.386-52.772-177.468 22.062 29.726 61.53 145.967 90.355 271.414l47.893-105.814-43.237 126.664c9.756 44.7 17.96 89.96 23.393 132.44l72.837-54.91-71.396 67.44c4.545 38.6 2.771 61.01 1.33 91.62l-13.525-3.77c4.767-29.84-1.885-71.1-13.082-140.42-15.743-6.33-151.219-60.56-175.388-69.66 25.499 8.65 173.06 55.13 173.503 57.23z" fill="url(#E)"/><path d="m185.587 1042.73c.221 0 1.552.45 3.658 1.33-2.771-.88-4.102-1.33-3.658-1.33z" fill="url(#F)"/><path d="m282.704 1027.09c4.545 6.44 14.302 7.32 14.302 7.32s2.328-9.42-2.329-15.86c-4.545-6.43-10.975-9.65-14.301-7.32s-2.328 9.43 2.328 15.86z" fill="url(#H)"/><path d="m154.212 835.982c4.546 6.434 14.302 7.321 14.302 7.321s2.328-9.428-2.328-15.861c-4.546-6.434-10.976-9.65-14.302-7.321-3.215 2.329-2.217 9.428 2.328 15.861z" fill="url(#I)"/><path d="m515.186 1053.6c-3.991 6.77-.998 15.97-.998 15.97s9.646-1.66 13.637-8.43c3.991-6.76 4.434-13.97.998-15.97-3.437-2.11-9.535 1.67-13.637 8.43z" fill="url(#J)"/><path d="m267.516 698.223c1.552 7.764 9.977 12.534 9.977 12.534s5.987-7.764 4.435-15.418c-1.552-7.764-5.987-13.31-9.978-12.533-3.991.887-5.987 7.764-4.434 15.417z" fill="url(#K)"/><path d="m414.632 860.606c-3.547 6.988.111 16.083.111 16.083s9.424-2.329 12.971-9.428c3.548-6.988 3.548-14.197-.11-16.083-3.548-1.775-9.424 2.44-12.972 9.428z" fill="#fff"/><path d="m154.877 995.814c3.991 1.442 8.648-1.109 8.648-1.109s-1.885-4.992-5.876-6.434c-3.991-1.441-7.871-.998-8.647 1.11-.776 2.107 1.773 4.991 5.875 6.433z" fill="url(#L)"/><path d="m380.375 894.99c.333 4.215 4.546 7.432 4.546 7.432s3.769-3.771 3.437-7.986c-.333-4.215-2.328-7.543-4.546-7.432-2.217.111-3.769 3.771-3.437 7.986z" fill="url(#M)"/><path d="m467.293 1039.29c.333 4.22 4.546 7.43 4.546 7.43s3.769-3.77 3.436-7.98c-.332-4.22-2.328-7.54-4.545-7.43-2.328.11-3.769 3.66-3.437 7.98z" fill="url(#N)"/><path d="m494.233 1053.71c.333 4.22 4.545 7.43 4.545 7.43s3.77-3.77 3.437-7.98c-.332-4.22-2.328-7.54-4.545-7.43-2.328.11-3.77 3.66-3.437 7.98z" fill="url(#O)"/><path d="m497.226 1132.24c-4.102-1-8.425 2.11-8.425 2.11s2.439 4.66 6.541 5.77c4.102 1 7.982.11 8.425-2.11.555-2.22-2.328-4.77-6.541-5.77z" fill="#fff"/><path d="m266.075 1110.84c2.439-3.55 1.108-8.66 1.108-8.66s-5.21.56-7.76 4.11c-2.439 3.55-2.994 7.43-1.109 8.65s5.322-.56 7.761-4.1z" fill="#fff"/><path d="m167.405 1013.34c2.439-3.55 1.109-8.65 1.109-8.65s-5.211.55-7.761 4.1c-2.439 3.55-2.993 7.43-1.108 8.65 1.884 1.22 5.321-.66 7.76-4.1z" fill="url(#P)"/><path d="m300.886 688.463c.332 4.214 4.545 7.431 4.545 7.431s3.77-3.771 3.437-7.986-2.328-7.542-4.545-7.431c-2.218.11-3.77 3.66-3.437 7.986z" fill="#fff"/><path d="m238.136 711.423c2.55 3.438 7.872 3.771 7.872 3.771s1.108-5.213-1.441-8.541c-2.55-3.438-6.098-5.102-7.872-3.771s-1.108 5.213 1.441 8.541z" fill="url(#Q)"/><path d="m670.397 1129.36 19.401 57.12-79.712-56.57z" fill="#f4c149"/><path d="m610.945 1130.51-34.348 48.38 78.809 56.01 34.347-48.38z" fill="#dc9b41"/><path d="m628.176 1131.22-39.74 55.97 55.129 39.18 39.741-55.97z" fill="#fff"/><path d="m632.813 1183.04 22.062 52.69 34.923-49.25z" fill="#f1a847"/><path d="m632.148 1182.49-56.984-3.44 34.922-49.14z" fill="#f1a847"/><path d="m636.361 1177.27 18.736 58.24-79.822-56.68z" fill="#231f20" opacity=".2"/><path d="m635.696 1178.38 19.401 57.13-79.822-56.68z" fill="#f0b15c"/><path d="m994.009 88.4009 60.311-.7764-78.382 58.3425z" fill="#f4c149"/><path d="m1054.31 87.6079-77.566 57.7131 35.396 47.615 77.57-57.713z" fill="#dc9b41"/><path d="m1037.1 88.7575-54.265 40.3725 40.945 55.091 54.27-40.373z" fill="#fff"/><path d="m1033.48 140.754 56.87-4.77-36.03-48.4703z" fill="#f1a847"/><path d="m1032.81 141.198-20.95 53.129-35.922-48.36z" fill="#f1a847"/><path d="m1029.04 135.541 61.2.222-78.49 58.453z" fill="#231f20" opacity=".2"/><path d="m1029.82 136.539 60.42-.776-78.49 58.453z" fill="#f0b15c"/><path d="m1400.5 744.784c4.28-32.37-18.48-62.08-50.83-66.361-32.36-4.28-62.05 18.49-66.33 50.86s18.48 62.081 50.83 66.361c32.36 4.281 62.05-18.49 66.33-50.86z" fill="#0c6"/><path d="m1298.55 719.741c.11-.665.45-1.109.89-1.442 8.87-6.766 18.85-10.87 29.82-12.312 10.65-1.553 21.07-.443 31.16 3.328 10.53 3.771 19.4 9.871 26.6 18.301.45.444.67.998.56 1.664 0 .665-.34 1.22-.78 1.664l-5.32 4.325c-.55.333-1.11.444-1.66.444-.67 0-1.11-.333-1.44-.776-6.1-6.877-13.42-11.869-21.96-14.974-8.31-3.106-16.85-3.993-25.61-2.662-9.09 1.22-17.29 4.547-24.61 10.093-.44.444-.88.555-1.55.444-.55-.111-1.11-.333-1.55-.776l-4.32-5.324c-.12-.777-.34-1.331-.23-1.997zm14.08 17.636c.11-.666.45-1.22 1-1.553 5.77-4.104 12.09-6.655 18.96-7.542 6.87-.888 13.63-.222 20.29 2.107 6.54 2.329 12.19 6.211 16.96 11.425.44.554.66 1.109.55 1.774 0 .666-.33 1.22-.77 1.664l-5.32 4.326c-.56.332-1 .443-1.56.443-.55-.11-1.1-.332-1.44-.776-3.55-3.66-7.65-6.433-12.41-8.097-4.77-1.664-9.65-2.218-14.64-1.553-4.99.666-9.64 2.44-13.75 5.324-.55.333-.99.444-1.55.444-.55-.111-1.11-.333-1.44-.777l-4.32-5.324c-.56-.554-.67-1.22-.56-1.885zm19.74 27.951c1.55 1.886 3.54 2.995 6.09 3.328 2.55.221 4.77-.333 6.66-1.886 1.88-1.553 2.99-3.549 3.32-6.101.22-2.551-.33-4.769-1.88-6.655-1.55-1.885-3.55-2.994-6.1-3.327-2.55-.222-4.77.333-6.65 1.886-1.89 1.552-3 3.549-3.33 6.1-.22 2.551.33 4.769 1.89 6.655z" fill="#fff"/><path d="m1279.48 196.878-215.07 290.159 243.12 14.53 54.44-73.427z" fill="url(#R)"/><path d="m1250.11 1099.3 8.75-33.39 31.93 4.11c-3.1 12.42 14.86 24.4 33.59 35.6 24.73 14.75 34.04 22.19 32.27 40.93l-112.42-23.85z" fill="url(#T)"/><path d="m1250.11 1099.3 8.75-33.39 15.52 2-6.43 24.51c-3.21 12.76 4.77 25.62 17.63 28.29l70.51 14.97c.67 3.22.89 6.77.45 10.76l-112.42-23.85z" fill="#000" fill-opacity=".1" opacity=".15"/><path d="m1188.91 587.972 12.53 59.784.77-.111s85.92 137.094 105.66 175.693c19.73 38.71-10.43 251.342-10.43 251.342l-45.23-8.21s10.31-178.911 1.55-210.412c-8.64-31.389-117.29-140.975-128.27-166.597-47-108.921 63.42-101.489 63.42-101.489z" fill="url(#V)"/><path d="m1271.06 1060.92s10.31-178.907 1.55-210.408c-8.65-31.389-117.29-140.975-128.27-166.597-25.28-58.786-4.88-83.632 19.29-94.169-29.38 5.435-70.06 25.733-38.14 99.826 10.98 25.622 119.63 135.208 128.27 166.597 8.65 31.39-1.55 210.411-1.55 210.411l45.23 8.21s.45-3.22 1.22-8.77z" fill="#000" fill-opacity=".1" opacity=".15"/><path d="m1307.76 823.338c-2.78-5.546-6.99-12.978-11.98-21.851 0 .222-.11.444-.11.666 3.44 6.1 6.32 11.424 8.43 15.528 9.64 18.967 4.32 146.743 5.32 151.846 5.43-59.563 8.53-126.224-1.66-146.189z" fill="#fff"/><path d="m994.231 1126.03 21.949-26.62 27.27 17.08c-8.09 9.98 3.22 28.29 15.53 46.37 16.18 23.73 21.5 34.38 12.19 50.68l-92.128-68.88z" fill="url(#W)"/><path d="m994.231 1126.03 21.949-26.62 13.31 8.32-16.19 19.52c-8.32 10.21-6.43 25.29 4.1 33.05l57.76 43.15c-.66 3.22-1.99 6.43-4.1 9.98l-92.128-68.88z" fill="#000" fill-opacity=".1" opacity=".15"/><path d="m1152.99 636.22 15.85 17.525-19.4 44.256s11.2 158.39 12.86 201.759c1.66 43.368-114.74 223.83-114.74 223.83l-37.7-26.4s84.37-158.166 89.58-190.332c5.32-32.166-47.34-177.245-46.67-205.085 3.1-118.682 100.22-65.553 100.22-65.553z" fill="url(#X)"/><path d="m1029.26 1100.08s84.37-158.172 89.58-190.338c5.32-32.166-47.34-177.245-46.67-205.085 1.66-63.889 30.6-77.975 56.98-77.421-28.93-7.431-74.39-5.989-76.49 74.537-.78 27.84 51.88 172.919 46.67 205.085-5.32 32.166-89.58 190.332-89.58 190.332l37.7 26.4s1.77-2.66 4.76-7.54z" fill="#000" fill-opacity=".1" opacity=".15"/><path d="m1162.19 899.76c-.22-6.212-.89-14.752-1.77-24.846-.11.222-.23.333-.34.555.56 6.988 1 12.977 1.11 17.636.78 21.185-57.65 135.095-58.87 140.085 29.94-51.795 60.76-111.025 59.87-133.43z" fill="#fff"/><path d="m1258.97 566.121c2.78-3.328 4.88-7.21 6.55-11.425 4.21-10.869-8.76-13.864-13.86-23.514-9.98-18.856-19.96-47.916-30.16-66.661-49.33-90.065-57.87-58.232-57.87-58.232-32.59 25.289-12.08 53.573 5.21 83.188 12.42 21.185 46.23 76.533 52.77 82.301 6.99 6.211 15.97 7.986 24.62 4.104 5.1-2.219 9.31-5.546 12.74-9.761z" fill="url(#Z)"/><path d="m1239.8 564.235s-14.97 10.205-23.06-28.172c-8.1-38.267-29.83-80.526-29.83-80.526l-19.18-54.128c-3.21 1.331-4.1 4.881-4.1 4.881-32.59 25.289-12.08 53.572 5.21 83.187 12.42 21.186 46.23 76.533 52.77 82.301 6.99 6.211 15.97 7.986 24.62 4.104 5.21-2.329 9.42-5.657 12.86-9.872 2.77-3.327 4.87-7.209 6.54-11.424.88-2.33.99-4.326.55-6.101z" fill="#231f20" fill-opacity=".1"/><path d="m1319.4 503.342-73.73 72.761-20.73-42.148 74.72-44.367z" fill="url(#aa)"/><path d="m1308.97 496.021-69.17 68.214 5.87 11.869 73.73-72.762z" fill="#231f20" fill-opacity=".1"/><path d="m1316.51 456.979c-2.99 4.769-7.65 10.98-10.53 1.885-.66-2.218.33-7.542-1.44-9.095-3.1-2.662-4.77 3.549-5.65 5.879-5.99 16.526-5.77 39.597 12.19 48.027 13.53 6.322 27.27-4.437 34.26-15.196 6.87-10.648 9.09-23.071 2.88-34.273-1.66-2.995-3.66-5.324-4.77-8.319-1.11-2.884-1.55-5.768-2.99-8.541-.89-1.663-4.55-7.209-6.54-6.987-2.44.221-4.99 5.434-5.99 7.098-3.66 5.879-6.98 12.201-10.64 18.191-.22.332-.44.776-.78 1.331z" fill="#ffd4d4"/><path d="m1311.08 503.564c-14.74-6.877-17.52-23.626-14.74-38.599 0 11.757 4.21 23.07 15.63 28.394 13.52 6.323 27.27-4.436 34.25-15.195 2.55-3.882 4.44-7.986 5.44-12.312.55 7.653-1.89 15.417-6.43 22.405-6.88 10.87-20.62 21.74-34.15 15.307z" fill="#000" fill-opacity=".1"/><path d="m1362.74 434.906-45.12 64.443c-2.44 3.438-7.2 4.326-10.64 1.886l-17.85-12.534c-3.44-2.44-4.32-7.21-1.88-10.648l45.12-64.443c2.44-3.438 7.2-4.326 10.64-1.886l17.85 12.534c3.55 2.329 4.32 7.099 1.88 10.648z" fill="url(#ab)"/><path d="m1357.53 434.241-42.24 60.339c-2.44 3.438-7.2 4.325-10.64 1.885l-12.75-8.873c-3.44-2.44-4.32-7.21-1.88-10.648l42.24-60.339c2.43-3.439 7.2-4.326 10.64-1.886l12.75 8.874c3.44 2.44 4.32 7.209 1.88 10.648z" fill="url(#ad)"/><path d="m1027.71 435.572c-1-11.314 7.43-55.015 74.5-55.015 67.08 0 84.48 28.949 85.59 40.263l27.05 217.952c1 11.313-6.1 21.185-15.85 22.072l-68.18 6.322-2.22.222-68.18 6.323c-9.76.887-17.74-3.106-18.74-14.42l4.77-32.166z" fill="url(#ae)"/><path d="m1185.25 553.476c1.88-3.216 3.44-7.209 5.32-10.426 2.77-6.877 5.77-13.088 8.54-19.965.44-.998.77-1.996 1.11-3.106l14.74 118.682c1 11.313-6.1 21.185-15.85 22.072l-68.18 6.323-2.22.221-68.18 6.323c-9.76.887-17.3-1.886-18.41-13.199l4.33-33.387c1-.11 111.08-20.076 138.8-73.538z" fill="#231f20" fill-opacity=".1"/><path d="m1170.84 699.222c-.34-.111-.56-.333-.89-.444-.44 1.331-.78 2.551-1.22 3.882.78-1.22 1.44-2.329 2.11-3.438z" fill="#231f20" fill-opacity=".1" opacity=".1"/><path d="m1134.7 350.942-26.28-18.745-31.26-2.551s18.96 46.918 3.88 60.45c-13.2 11.757 12.53 23.07 27.49 19.188 14.97-3.771 33.59-3.438 21.62-22.405-4.77-7.321 4.55-35.937 4.55-35.937z" fill="#ffd4d4"/><path d="m1080.93 390.096c15.07-13.532-3.88-60.45-3.88-60.45l31.26 2.551 7.21 5.657-31.27-2.552s18.96 46.918 3.88 60.45c-4.21 3.771-4.43 7.543-2.21 10.759-7.76-3.771-12.09-9.982-4.99-16.415z" fill="#000" fill-opacity=".1"/><path d="m1163.19 550.482c-11.86-6.877-54.33-45.144-81.82-63.778-70.51-47.694-52.22-70.321-52.22-70.321 29.71-28.728 54.77-4.326 81.6 16.859 36.36 28.839 43.35 33.164 75.28 66.329 5.65 5.989-17.63 53.905-22.84 50.911z" fill="url(#af)"/><path d="m1164.19 534.51c-11.87-6.877-46.57-41.151-74.17-59.785-48.89-33.053-55.1-54.127-54.33-63.888-2.21 1.553-4.32 3.439-6.54 5.546 0 0-18.29 22.627 52.22 70.321 27.49 18.635 69.96 56.901 81.82 63.778 1.88 1.109 6.1-4.548 10.53-12.423-.78.555-9.09-3.217-9.53-3.549z" fill="#231f20" fill-opacity=".1"/><path d="m1133.03 241.577c-9.53-.666-17.62.776-26.6 4.104-12.64 4.769-26.83 9.871-37.03 18.966-14.86 13.2 7.31 50.579 11.64 68.325 0 0 1.44 7.654 4.21 13.2 2.88 5.435 26.16 25.067 44.9 25.4 30.6-3.661 41.91-8.43 40.02-18.524-1.99-11.091-16.52-83.187-18.62-91.173-5.55-13.311-.78-18.967-18.52-20.298z" fill="#ffd4d4"/><path d="m1069.51 264.648c10.2-9.095 24.39-14.086 37.03-18.967 8.87-3.438 16.96-4.769 26.38-4.104-6.09.444-11.86 1.775-17.96 4.104-12.64 4.77-26.83 9.872-37.03 18.967-14.85 13.199 7.32 50.578 11.64 68.325 0 0 1.45 7.653 4.22 13.199 2.55 4.992 22.5 21.962 40.24 24.957-1.22.111-2.44.332-3.77.443-18.73-.332-42.13-19.965-44.9-25.4-2.88-5.435-4.21-13.199-4.21-13.199-4.44-17.747-26.5-55.126-11.64-68.325z" fill="#000" fill-opacity=".1"/><path d="m1036.58 299.476c-2.33-4.547-3.88-9.317-4.54-14.641-1.22-11.202-1.22-23.625 6.54-32.609 3.21-3.772 9.2-11.979 14.85-11.314-.55-.111 2.88-9.65 3.22-10.315 1.77-3.328 4.54-6.212 7.87-8.208 6.87-4.215 15.52-4.88 23.28-5.879 11.86-1.553 25.28-2.884 37.03.333 11.2 3.106 15.52 10.426 21.28 19.521 4.33 6.766 11.65 8.208 19.07 9.207.78 2.329-.44 4.88-2.1 6.655-2.33 2.662-3.99 2.218-.22 4.214 4.76 2.552 13.3 1.442 17.51-1.441.67 4.103-2.1 9.428-4.43 12.644-2.33 3.328-4.88 6.877-7.54 9.983-6.54 7.431-24.72 14.973-40.69 15.306-5.32.111-10.53-.222-15.85-.333-6.43-.11-12.64-.554-18.63-2.883-3.55-1.442-6.09-4.326-9.75-5.879 3.99 11.092 6.76 21.407 7.65 33.164.44 5.435 1.22 12.09 1.1 18.523-10.86-4.325-21.84-7.431-33.03-9.871-8.65-7.654-17.41-15.972-22.62-26.177z" fill="url(#ah)"/><path d="m1180.26 254.888c-4.21 2.994-12.64 3.993-17.52 1.441-3.65-1.885-1.99-1.552.23-4.214 1.55-1.775 2.77-4.326 2.1-6.655-6.09-.777-12.19-1.886-16.52-6.101 2.44 4.104 5.66 7.21 11.31 7.764-1.44 5.879-7.31 7.321-11.64 11.758 5.88 0 10.2 2.883 16.08 2.883-14.64 17.525-36.59 20.52-58.54 17.525-14.63-2.884-26.27-8.762-35.14-21.961 7.42 21.074 17.96 53.684.55 71.208 6.99 1.886 13.97 4.104 20.84 6.877.11-6.433-.77-13.088-1.11-18.523-.88-11.757-3.65-21.961-7.65-33.164 3.55 1.553 6.1 4.437 9.76 5.879 5.99 2.329 12.2 2.662 18.63 2.883 5.32.111 10.53.444 15.85.333 15.96-.333 34.26-7.875 40.69-15.306 2.66-3.106 5.32-6.655 7.54-9.983 2.43-3.217 5.21-8.541 4.54-12.644z" fill="#231f20" fill-opacity=".1" opacity=".01"/><path d="m1055.65 318.998c-1.55 9.206 9.42 18.19 18.51 15.861 8.98-2.44 7.65-3.661 7.65-3.661s-6.43-26.509-15.52-24.179c-9.09 2.44-9.09 2.44-10.64 11.979z" fill="#ffd4d4"/><path d="m1059.53 321.327c1.55-9.539 1.55-9.539 10.64-11.979.67-.111 1.22-.222 1.78-.111 5.87 6.1 9.75 21.961 9.75 21.961s1.44 1.221-7.65 3.661c-2.88.776-5.98.333-8.76-.777-3.99-3.105-6.65-7.875-5.76-12.755z" fill="#000" fill-opacity=".1"/><path d="m1146.12 239.248c-5.77-9.206-10.09-16.526-21.29-19.521-11.75-3.217-25.06-1.775-37.03-.333-7.76.998-16.41 1.664-23.28 5.879-3.22 1.996-5.99 4.769-7.87 8.208-.34.665-3.88 10.315-3.22 10.315-5.65-.666-11.64 7.431-14.85 11.313-5.21 6.101-6.99 13.754-7.1 21.518-.22-8.762 1.22-17.525 7.1-24.401 3.21-3.772 9.2-11.979 14.85-11.314-.55-.111 2.88-9.65 3.22-10.315 1.77-3.328 4.54-6.212 7.87-8.208 6.87-4.215 15.52-4.88 23.28-5.879 11.86-1.553 25.28-2.884 37.03.333 11.2 3.106 15.52 10.426 21.29 19.521 4.32 6.766 11.64 8.208 19.06 9.207.23.887-14.74.554-19.06-6.323z" fill="#fff"/><path d="m1162.74 259.324c-3.21-1.663-2.43-1.663-.66-3.216.22.111.44.222.66.332 4.77 2.552 13.31 1.442 17.52-1.441.11.887-12.64 6.765-17.52 4.325z" fill="#fff"/><path d="m1300.33 505.228-107.98 47.916c-10.43 4.658-22.62 3.105-31.6-3.993l-17.52-13.865 30.27-32.499 118.62-18.856z" fill="url(#ai)"/><path d="m1195.78 538.503c-10.42 4.658-22.61 3.105-31.59-3.993l-11.64-9.207-9.32 9.983 17.52 13.865c8.98 7.098 21.17 8.651 31.6 3.993l107.98-47.917-4.33-11.091z" fill="#231f20" fill-opacity=".1"/><path d="m1322.61 463.744c-4.88 2.884-11.86 6.101-10.2-3.216.44-2.219 3.88-6.544 2.99-8.763-1.44-3.882-5.87.888-7.76 2.551-12.97 11.869-23.61 32.277-11.64 48.139 8.98 11.979 26.17 8.873 37.36 2.551 10.98-6.212 18.85-16.194 18.52-28.95-.11-3.438-.78-6.433-.33-9.539.33-3.105 1.33-5.878 1.33-8.984 0-1.775-.78-8.43-2.44-9.206-2.22-.887-6.88 2.44-8.65 3.549-5.99 3.55-11.86 7.432-17.85 11.092-.44.222-.89.444-1.33.776z" fill="#ffd4d4"/><path d="m1336.14 500.458c-11.2 6.322-28.38 9.317-37.36-2.551-7.77-10.315-5.99-22.516-.34-33.053-7.76 11.424-11.31 25.732-2.44 37.49 8.98 11.979 26.17 8.873 37.36 2.551 6.77-3.771 12.42-9.095 15.64-15.64-3.22 4.548-7.65 8.319-12.86 11.203z" fill="#000" fill-opacity=".1"/><path d="m1245.34 491.363-58.43 7.32s-83.7-76.643-98-82.411c0 0 92.13 79.306 97.56 85.295z" fill="#fff"/><path d="m424.832 1075.67c-.665-2.77 1.885-6.54.887-9.98 12.195 3.55 24.501 6.43 29.49-.44l13.414 12.64-13.303 18.64c-2.328-1-4.657-1.89-6.652-2.33-10.2-2.33-21.286-8.54-23.836-18.53z" fill="#ffd4d4"/><path d="m425.719 1065.8c.887 3.44-1.552 7.21-.887 9.99 2.55 9.98 13.636 16.19 23.836 18.52 2.106.44 4.323 1.33 6.651 2.33l-7.649 10.76s-35.477-25.29-53.548-38.16c-.443-13.97 15.521-8.21 31.597-3.44z" fill="url(#ak)"/><path d="m452.88 1064.69s68.293-153.506 91.574-179.793c23.282-26.399 180.931-239.027 180.931-239.027s78.935 72.651-10.754 164.712c-34.368 35.272-87.139 66.44-118.625 100.602-31.707 34.052-118.735 160.936-127.383 166.706z" fill="url(#al)"/><path d="m456.982 1063.7c8.648-5.77 95.676-132.773 127.273-166.935 31.596-34.162 84.256-65.33 118.624-100.602 65.189-66.883 41.353-123.451 23.504-149.405 9.09 9.095 71.618 77.975-11.863 163.714-34.368 35.271-87.139 66.439-118.625 100.601-31.596 34.163-118.624 161.047-127.272 166.817l-15.743-13.31s.555-1.11 1.442-3.21z" fill="#000" fill-opacity=".1" opacity=".15"/><path d="m434.145 1091.54c5.654 3.99 13.414 2.66 17.405-2.89l.333-.55 10.975-15.42 5.544 5.32-13.304 18.64-7.65 10.76s-35.476-25.29-53.547-38.16c-.111-2.33.332-3.99.998-5.32 12.195 8.32 28.713 20.18 39.246 27.62z" fill="#000" fill-opacity=".1" opacity=".15"/><path d="m761.97 1162.97c-2.771-.23-5.654-3.66-9.201-3.89 6.984-10.64 13.414-21.51 8.314-28.28l15.965-9.1 13.858 18.2c-1.663 1.99-3.215 3.88-4.213 5.76-5.211 8.99-14.412 17.75-24.723 17.31z" fill="#ffd4d4"/><path d="m752.769 1159.08c3.547.11 6.43 3.66 9.201 3.89 10.311.44 19.512-8.21 24.723-17.31.998-1.88 2.55-3.77 4.213-5.76l7.982 10.53s-34.59 26.4-52.328 39.82c-13.304-3.55-2.993-17.19 6.209-31.17z" fill="url(#am)"/><path d="m759.753 1132.91s-167.96-154.954-142.35-202.426l99.778-272.413s98.004 43.591 42.35 159.499c-21.286 44.478-55.321 70.765-79.157 117.239-16.186 31.501 93.569 177.021 96.563 187.121z" fill="url(#an)"/><path d="m759.864 1118.38c-2.993-9.99-112.749-155.619-96.563-187.12 23.836-46.474 57.871-72.761 79.157-117.239 41.242-85.961-1.995-132.102-27.051-150.293l1.885-5.768s98.004 43.591 42.35 159.499c-21.286 44.478-55.321 70.765-79.157 117.24-16.186 31.5 93.569 177.021 96.563 187.121l-17.295 11.09s-3.326-3.33-8.647-8.99z" fill="#000" fill-opacity=".1" opacity=".15"/><path d="m779.93 1158.75c5.543-4.21 6.541-12.09 2.328-17.52l-.443-.56-11.53-15.08 6.651-3.77 13.858 18.19 7.983 10.53s-34.59 26.4-52.328 39.82c-2.217-.55-3.77-1.44-4.767-2.55 11.862-8.98 27.937-21.29 38.248-29.06z" fill="#000" fill-opacity=".1" opacity=".15"/><path d="m649.11 863.157s-33.037 71.985-30.931 85.739c2.217 13.865 20.067 45.143 32.483 62.894 0 0-29.268-50.36-25.166-71.324 4.213-20.963 23.614-77.309 23.614-77.309z" fill="#fff"/><path d="m507.758 962.871s24.28-54.793 38.359-73.981c14.08-19.3 56.098-63.556 56.098-63.556s-52.883 65.996-58.537 79.306c-5.765 13.088-35.92 58.231-35.92 58.231z" fill="#fff"/><path d="m578.712 530.96 62.638 110.696-14.745 13.753c-6.208 5.768-16.297 3.55-19.401-4.326l-44.789-112.359z" fill="#ffd4d4"/><path d="m551.772 508.555c.554-1.553 1.33-2.884 2.106-4.104 3.991-5.989 14.301-6.877 18.403.111.998 1.775 1.663 4.326 3.77 4.769 2.328.444 4.324-2.218 6.652-1.774 2.55.554 2.66 4.104 2.217 6.655-1.552 8.651-1.774 16.859-7.539 23.847-4.323 5.213-11.751 6.655-18.182 5.546-5.986-.998-13.636-9.872-15.299-15.75-1.774-6.212 4.989-12.09 7.872-19.3z" fill="#ffd4d4"/><path d="m667.846 557.137-60.532 71.652 30.156 16.527s53.88-52.797 65.964-54.571c38.802-20.076 13.304-83.077-35.588-33.608z" fill="#ecdac7"/><path d="m586.805 543.383 36.585 64.665 57.649-79.861c56.43-57.122 74.058 28.839 29.158 51.909-11.087 14.752-70.51 68.88-70.51 68.88l-.111-.111-12.417 11.646c-7.206 6.655-18.736 4.104-22.394-4.991l-42.24-96.165c6.763-4.326 17.184-11.979 24.28-15.972z" fill="url(#ap)"/><path d="m600.995 636.664c3.659 9.095 15.189 11.647 22.395 4.991l12.417-11.646.111.111s59.423-54.017 70.509-68.879c16.741-8.652 24.723-26.066 25.277-41.483 8.648 16.637 2.772 47.694-21.618 60.338-11.087 14.752-70.51 68.88-70.51 68.88l-.111-.111-12.417 11.646c-7.206 6.655-18.736 4.104-22.394-4.991l-42.239-96.165c1.108-.666 2.328-1.442 3.547-2.329z" fill="#000" fill-opacity=".1" opacity=".15"/><path d="m677.049 654.633c5.21-17.525 5.764-35.272 1.552-51.133-2.661-9.872-7.761-18.412-9.535-28.173-1.774-9.871 2.439-17.414 9.091-24.291 10.865-11.202 21.73-21.85 27.051-35.937 1.996-5.435.333-4.88 6.43-5.878 8.315-1.442 20.843-2.884 29.157-2.108 23.836 2.329 88.803 17.081 76.608 57.011-2.883 9.539-9.424 16.527-15.078 24.402-9.312 12.978-18.071 23.293-24.057 40.374-5.544 15.861-9.978 34.273-9.424 53.24.776 23.626 31.042 52.797 11.53 63.334-22.949 12.423-103.326-1.331-124.279-15.418-.665-.443 15.521-59.784 18.958-69.212.665-1.996 1.33-4.104 1.996-6.211z" fill="url(#aq)"/><path d="m669.066 575.327c-1.774-9.871 2.439-17.414 9.091-24.291 3.436-3.549 6.984-7.098 10.31-10.759-7.982 16.86-12.639 9.096-14.191 30.835-.997 17.636 34.257 68.436 51.552 72.651 2.55.222 4.767 2.995 5.211 6.433-8.204-2.551-16.186 1.775-21.73 6.212-7.317 5.989.998 6.876 5.544 12.422-10.089-.222-20.732 4.659-21.73 13.865-1.33 19.521-6.873 38.599-9.867 57.899-11.751-3.217-21.396-6.877-27.051-10.648-.665-.444 15.521-59.785 18.958-69.213.776-2.107 1.441-4.104 1.996-6.211 5.21-17.525 5.765-35.272 1.552-51.133-2.772-9.761-7.871-18.301-9.645-28.062z" fill="#000" fill-opacity=".1" opacity=".15"/><path d="m775.828 636.221c-9.091-25.733-9.534-52.353 8.315-68.88 2.993 10.537 6.098 21.74 9.978 32.499-6.209 8.54-11.752 17.192-15.965 29.171-.776 2.329-1.552 4.658-2.328 7.21z" fill="#231f20" opacity=".1"/><path d="m708.755 459.973 29.379-4.104 29.49 2.884s-16.629 39.709-10.975 47.251c10.31 13.865-22.617 37.157-22.617 37.157s-23.725-16.859-16.629-40.152c2.55-9.095-8.648-43.036-8.648-43.036z" fill="#ffd4d4"/><path d="m745.452 509.11c-5.655-7.543 10.975-47.251 10.975-47.251l-29.49-2.884-17.738 2.551c-.333-.887-.444-1.442-.444-1.442l29.379-4.104 29.49 2.884s-16.629 39.708-10.975 47.251c10.31 13.864-22.617 37.157-22.617 37.157s-1.441-.998-3.547-2.884c8.869-7.986 21.951-21.851 14.967-31.278z" fill="#000" fill-opacity=".1"/><path d="m586.805 543.383 36.585 64.665 57.649-79.861c11.974-12.201 22.284-17.857 30.488-18.967-1.552.999-14.08 4.104-29.601 20.742l-57.649 79.86-36.585-64.664c-6.874 3.882-16.963 11.313-23.836 15.75-.222 0-.555 0-.776 0l-.665-1.442c6.873-4.437 17.294-12.09 24.39-16.083z" fill="#fff"/><path d="m633.257 659.402 94.235 45.366c8.758 4.547 20.953 5.434 30.155 2.107l4.767-6.544-9.867-25.511-112.971-31.501z" fill="#ffd4d4"/><path d="m624.831 621.247c7.761 5.102 15.078 13.421 16.408 22.516l111.308 31.057 6.763 17.636-1.774 2.218-5.876-15.196-111.308-31.056c-1.33-9.096-8.647-17.414-16.408-22.517-.887-.554-2.328-1.663-3.658-2.107-.887-1.22-1.774-2.551-1.552-3.549.665-2.995 4.545 0 6.097.998z" fill="#000" fill-opacity=".1"/><path d="m619.288 616.477c1.441.333 2.55 1.109 3.769 1.997 5.433 4.104 10.2 9.317 12.639 15.639l-3.77-.111c-.776.555-1.884.222-2.66-.333-.776-.554-1.331-1.33-1.885-2.107-1.663-1.996-3.88-3.327-5.876-5.102-2.439-2.108-4.545-4.659-5.986-7.543-.111-.221-.222-.443-.222-.665s.111-.333.222-.555c.776-1.109 2.439-1.442 3.769-1.22z" fill="#ffd4d4"/><path d="m614.964 630.009c.333.111.665.222.998.333.887.222 1.885.444 2.883.444 1.663-.111 3.215-.999 4.323-2.33 1.109-1.22 1.774-2.883 2.439-4.436.222-.555.444-1.22.998-1.442.887-.444 1.885.333 2.55 1.109 7.871 8.762 16.519 19.965 9.978 32.055-5.322 9.872-18.404 9.65-27.495 6.211-8.869-3.327-15.853-9.871-17.184-19.41-.332-2.551-.221-4.77-.887-7.099-.665-2.218-1.662-4.215-2.106-6.544-.222-1.331-.443-6.433.776-7.099 1.552-.998 5.432.999 6.874 1.553 5.432 2.108 10.421 4.992 15.853 6.655z" fill="#ffd4d4"/><path d="m804.986 600.949-38.027 92.727-24.723-23.737s20.399-72.65 16.186-84.075c-.997-43.701 66.519-51.465 46.564 15.085z" fill="#ecdac7"/><path d="m816.737 580.54-47.117 114.023c-2.772 7.875-8.98 23.958-29.046 19.41-20.067-4.547-103.769-41.704-103.769-41.704 2.882-11.758 7.428-22.627 11.086-31.279l88.692 20.52s27.937-85.407 22.727-99.493c-1.109-53.906 82.039-63.555 57.427 18.523z" fill="url(#ar)"/><path d="m733.146 701.662c20.066 4.547 26.385-11.536 29.046-19.411l47.117-114.023c5.433-18.301 5.654-31.944 2.55-41.705 9.202 8.541 13.415 25.844 4.989 54.017l-47.117 114.023c-2.772 7.875-8.98 23.958-29.047 19.41-20.066-4.547-103.768-41.704-103.768-41.704.665-2.773 1.441-5.435 2.217-7.986 22.616 9.76 78.048 33.829 94.013 37.379z" fill="#000" fill-opacity=".1" opacity=".15"/><path d="m759.642 573.331c-1.774 25.732-23.281 91.284-23.281 91.284l-88.692-20.519c-3.436 7.875-7.428 17.635-10.31 28.284-.333-.111-.443-.222-.443-.222 2.882-11.758 7.427-22.627 11.086-31.279l88.691 20.52" fill="#fff"/><path d="m701.66 412.944c-1.33-2.662-2.661-5.435-4.656-7.653-1.996-2.218-4.878-3.882-7.872-3.771l-17.405 7.431c-.776.333.221 25.068.554 26.62 3.659 17.304 8.426 18.08 9.756 35.716.776 9.65 1.33 14.863.443 30.724 13.082-9.095 16.741-12.312 22.839-26.62 7.982-18.634 5.099-44.256-3.659-62.447z" fill="url(#as)"/><path d="m701.66 412.944c-1.33-2.662-2.661-5.435-4.656-7.653-1.996-2.218-4.878-3.882-7.872-3.771l-17.405 7.431c-.776.333.221 25.068.554 26.62 3.659 17.304 8.426 18.08 9.756 35.716.776 9.65 1.33 14.863.443 30.724 13.082-9.095 16.741-12.312 22.839-26.62 7.982-18.634 5.099-44.256-3.659-62.447z" fill="#231f20" opacity=".1"/><path d="m822.835 409.395c-2.328-5.878-6.541-10.87-11.419-14.974-4.213-3.549-8.98-6.655-14.301-7.764-4.768-.998-9.757-.443-14.302.998-9.423 2.884-18.403 10.094-19.956 19.855l7.207 28.616c4.323 3.106 6.541 8.541 7.428 13.865.886 5.324.886 10.759 1.995 16.083 3.326 16.416 18.404 29.615 35.033 30.835-3.658-8.43-4.767-17.747-3.437-26.842 1.552-10.426 6.431-19.965 9.867-29.837 3.437-9.982 5.654-21.074 1.885-30.835z" fill="url(#at)"/><path d="m819.731 443.225c3.547-9.872 5.654-20.964 1.884-30.835-2.328-5.879-6.541-10.87-11.419-14.974-4.212-3.549-8.98-6.655-14.301-7.764-4.767-.998-9.756-.444-14.302.998-7.649 2.329-14.855 7.431-18.292 14.419 2.55-8.54 10.754-14.863 19.401-17.525 4.656-1.442 9.645-1.996 14.302-.998 5.321 1.109 10.199 4.215 14.301 7.764 4.878 4.104 9.091 9.096 11.419 14.974 3.769 9.761 1.552 20.853-1.885 30.835-.665 1.775-1.33 3.66-1.995 5.435.332-.776.554-1.553.887-2.329z" fill="#fff"/><path d="m811.97 496.576c-2.55-7.542-3.326-15.639-2.106-23.514.998-6.212 3.104-12.201 5.432-18.08-1.885 4.881-3.437 9.872-4.213 15.085-1.33 8.984-.111 18.412 3.437 26.842-.887-.111-1.774-.222-2.55-.333z" fill="#fff"/><path d="m795.784 400.522c-3.105-4.992-7.65-9.983-13.526-12.645-9.312 2.995-17.849 10.094-19.512 19.632l7.206 28.617c4.324 3.106 6.541 8.541 7.428 13.865s.887 10.759 1.996 16.083c.998 5.102 3.104 9.76 6.097 13.975 10.976-26.731 28.271-53.573 10.311-79.527z" fill="#231f20" opacity=".1"/><path d="m694.343 388.432c6.874-3.882 30.488-12.423 47.118 2.773 12.084 11.091 16.518 23.847 19.512 38.488 3.437 16.97 5.21 36.492-4.989 51.576-5.987 8.874-15.854 14.752-26.053 17.303-8.648 2.108-22.506 4.77-30.266-1.331-7.096-5.545-7.206-15.639-9.424-23.736-2.439-8.984-3.437-18.856-7.871-26.953-2.217-4.104-10.976-16.194-16.851-19.188-.444-11.979 16.075-31.723 28.824-38.932z" fill="#ffd4d4"/><path d="m743.788 484.708c10.089-15.085 8.426-34.606 4.989-51.577-2.993-14.752-7.428-27.507-19.512-38.488-9.423-8.651-21.064-9.65-30.709-8.208 9.645-3.882 28.714-7.986 42.793 4.881 12.085 11.091 16.519 23.847 19.512 38.488 3.437 16.97 5.211 36.492-4.988 51.576-5.987 8.874-15.854 14.752-26.054 17.303-1.773.444-3.769.888-5.765 1.331 7.872-3.216 15.078-8.318 19.734-15.306z" fill="#000" fill-opacity=".1"/><path d="m781.371 453.206c4.102-15.639 5.1-31.389.555-47.25-4.989-17.303-17.184-33.386-34.812-39.376-16.186-5.435-33.813-4.326-49.778.998-8.425 2.773-12.195 4.992-16.851 11.868-13.082-1.663-21.508 9.317-24.058 16.86-5.321 16.083-2.66 25.733 1.774 36.159 8.204 19.078 14.302 17.636 24.39 33.719 1.109 1.774 2.329 2.883 2.661 5.213.111-4.326-1.885-9.65-3.326-13.865-4.434-13.31-6.763-21.296-4.989-31.279 9.756 21.075 54.213 10.094 70.067 30.835 5.099-10.537-1.22-21.407-1.22-21.407s5.543 6.766 6.43 14.198c.776 6.433 1.774 12.09 1.331 18.523-.222 3.217-.222 6.433-.777 9.539-.332 2.107-1.441 11.313-1.441 11.313s22.727-8.208 30.044-36.048z" fill="url(#au)"/><path d="m671.838 426.144c2.439-9.65 8.647-8.541 7.317-18.413 6.208 22.628 27.272 9.428 45.454 19.855 4.878 3.771 8.537 7.875 11.419 13.531.333-12.866-7.76-23.514-17.516-31.167 18.957 3.771 41.574 20.741 37.25 42.37-.554 2.773-1.441 5.213-2.55 7.653-.332-3.327-.776-6.655-1.219-10.204-.887-7.542-6.43-14.197-6.43-14.197s6.319 10.869 1.219 21.407c-15.854-20.742-61.862-9.983-70.066-30.835-.887 5.102-1.441 8.762 1.33 19.299-6.652-8.319-7.428-15.084-6.208-19.299z" fill="#231f20" opacity=".1"/><path d="m779.598 456.979c4.102-15.64 5.1-31.39.554-47.251-4.989-17.303-17.184-33.386-34.922-39.376-16.186-5.435-33.814-4.325-49.778.999-8.426 2.772-12.195 4.991-16.851 11.868-10.754-1.331-18.404 5.878-22.173 12.644 2.66-7.542 11.086-18.19 23.946-16.526 4.657-6.877 8.426-9.096 16.852-11.869 15.964-5.213 33.592-6.433 49.778-.998 17.738 5.99 29.822 22.073 34.811 39.376 4.546 15.861 3.548 31.611-.554 47.251-1.109 4.103-2.439 7.764-4.102 11.091.998-2.218 1.774-4.547 2.439-7.209z" fill="#fff"/><path d="m551.55 519.536 3.88-12.867c-.776-2.218.222-4.991 2.217-6.211 2.217-1.331 5.211-.776 7.428.555s3.991 3.327 5.987 5.102c2.217 1.885 4.545 3.549 7.206 4.769.887.444 1.885.887 2.217 1.886.222.554.111 1.22 0 1.774-.887 4.104-4.102 7.321-7.539 9.872-.887.666-1.663 1.22-2.439 1.997-.776.887-1.33 1.885-1.884 2.773-1.885 3.105-4.102 6.1-7.317 7.875-3.215 1.774-7.428 1.885-10.2-.444-2.328-1.997-3.104-5.324-2.771-8.43.332-3.105 1.773-5.989 3.215-8.651z" fill="#ffd4d4"/><path d="m536.14 480.604 13.636 63.888c.776 3.771 4.545 6.211 8.426 5.435l16.851-3.549c3.769-.777 6.208-4.548 5.432-8.43l-13.636-63.888c-.776-3.771-4.545-6.212-8.426-5.435l-16.851 3.549c-3.769.777-6.208 4.548-5.432 8.43z" fill="url(#av)"/><path d="m540.463 481.824 12.75 59.784c.776 3.771 4.545 6.212 8.425 5.435l11.641-2.44c3.77-.776 6.209-4.548 5.433-8.43l-12.75-59.784c-.776-3.771-4.545-6.211-8.426-5.435l-11.64 2.44c-3.77.888-6.209 4.548-5.433 8.43z" fill="url(#aw)"/><path d="m584.477 516.874s3.547-9.983-3.77-13.31c-7.317-3.217-13.304-4.104-14.301-1.22-.998 2.883 8.204 7.986 8.647 9.76.222 1.775 8.98 6.323 9.424 4.77z" fill="#ffd4d4"/><path d="m1063.52 947.121c-4.1-.222-6.32-2.662-6.65-7.431l.11-70.433c.44-4.88 2.66-7.653 6.76-8.429 41.8-2.884 83.26-6.988 123.51-12.423 7.42-.998 14.74-1.997 21.84-3.106 3.77-.111 5.87 2.219 6.2 6.988l-.11 70.432c0 .999-.11 1.886-.55 3.217l14.85 22.405c-14.08-3.882-32.81-9.206-46.78-13.088-38.91 5.102-78.82 9.095-119.18 11.868zm-128.269-101.489c-.111-.665-.222-1.442-.333-2.107l.111-36.603c.333-3.993 2.217-6.1 5.543-6.544 56.541-.777 113.418-3.549 168.958-8.763 3.33.111 5.1 2.108 5.43 5.99l-.11 36.603c-.33 3.993-2.11 6.322-5.43 6.987-44.9 4.104-90.58 6.766-136.254 8.097-16.74 6.323-38.913 14.752-55.653 20.853zm128.599-84.408c-4.1-.222-6.32-2.662-6.65-7.431l.11-70.433c.45-4.88 2.66-7.653 6.77-8.429 41.79-2.884 83.25-6.988 123.5-12.423 7.43-.998 14.74-1.997 21.84-3.106 3.77-.111 5.87 2.219 6.21 6.988l-.11 70.432c0 .999-.12 1.886-.56 3.217l14.75 22.405c-14.08-3.882-32.82-9.206-46.79-13.088-38.8 5.102-78.71 9.095-119.07 11.868zm-127.823-116.019c-.333-.998-.554-1.886-.665-3.328l.111-61.891c.443-4.992 2.66-7.654 6.984-8.208 55.654-.777 111.533-3.55 166.183-8.541 4.22.111 6.43 2.551 6.77 7.542l-.12 61.892c-.44 4.991-2.66 7.875-6.87 8.763-44.46 4.104-89.58 6.655-134.921 7.875-16.74 6.322-38.913 14.752-55.654 20.852zm128.273-125.447c-4.11-.222-6.32-2.662-6.65-7.432l.11-70.432c.44-4.881 2.66-7.654 6.76-8.43 41.79-2.884 83.26-6.988 123.5-12.423 7.43-.998 14.75-1.996 21.84-3.105 3.77-.111 5.88 2.218 6.21 6.987l-.11 70.433c0 .998-.11 1.885-.55 3.216l14.74 22.406c-14.08-3.882-32.82-9.206-46.78-13.089-38.81 5.103-78.72 9.096-119.07 11.869zm181.15 441.782 1.11-582.425c-18.74 3.216-38.14 6.211-58.43 8.984-92.79 12.534-191.349 18.19-288.023 17.636l.111-50.689-1.22 633.115c96.785.443 195.232-5.214 288.022-17.636 20.18-2.884 39.69-5.768 58.43-8.985z" fill="#25a9e0" opacity=".2"/><path d="m1217.07 1021.88c-17.52 2-22.84-21.74-17.63-28.395.11-.111 6.54-7.765 8.09 3.882.45 3.323.34 8.653-5.43 7.983.44 5.66 3.55 8.99 9.09 9.87 0-5.76 4.33-8.2 7.87-4.54.11.11 8.32 9.65-1.99 11.2zm28.38-59.23c-18.74 3.216-38.14 6.211-58.43 8.984-16.4 2.218-33.03 4.215-49.77 5.989 32.26-1.552 40.9 42.257 19.95 65.557-7.98 8.98-16.19 10.31-20.18 10.98-77.82 8.32-158.643 12.09-238.243 11.64l.11-76.53-.11 76.53c96.784.45 195.233-5.21 288.023-17.63 20.29-2.78 39.69-5.66 58.43-8.99z" fill="#fff"/><path d="m956.869 1032.08c-4.102.11-8.093.11-12.195.23-2.106.11-2.771 2.99-1.33 4.32.554.56 1.109.56 1.33.56 4.102-.12 8.093-.11 12.195-.23 2.218-.22 2.772-3.32 1.22-4.54-.554-.23-.998-.34-1.22-.34zm.111-7.76c-4.102.11-8.093.11-12.195.22-2.217.22-2.771 3.33-1.219 4.55.443.33.887.44 1.219.44 4.102-.11 8.093-.11 12.195-.22 2.218-.22 2.772-3.33 1.22-4.55-.554-.44-1.109-.44-1.22-.44zm73.5 9.98c-6.65 0-8.42-8.87-4.1-13.2 4.21-4.32 10.53-1.22 10.53 5.33 0 4.1-2.88 7.65-6.43 7.87zm0-17.19c-8.75 1-10.64 13.31-4.65 17.86 6.09 4.55 14.08-2.22 12.64-10.65-.67-4.44-4.11-7.43-7.99-7.21zm71.73-5.99c-4.43.67-5.43 7.1-2.33 9.32 3.11 2.22 7.1-1.44 6.43-5.66-.44-2.33-2.21-3.77-4.1-3.66zm-145.23 5.32c-4.102.12-8.093.12-12.195.23-2.106.11-2.771 2.99-1.33 4.32.554.56 1.109.56 1.33.56 4.102-.11 8.093-.11 12.195-.23 2.218-.22 2.772-3.32 1.22-4.54-.554-.34-1.109-.34-1.22-.34zm145.01-12.53c10.87-.33 12.75 17.3.11 31.28v.22l-.11-.11-.11.11c0-.22-.22-.44-.33-.55-3.22-3-8.54-9.32-8.43-18.86-.11-5.32 3.33-11.53 8.87-12.09zm-88.8 37.05v-28.62c3.32-.11 6.65-.33 9.98-.44.11-1.78 1.1-3 2.55-3.22 3.1-.11 6.32-.33 9.42-.55 1.55 0 2.55 1.1 2.55 2.88 3.88-.22 7.65-.44 11.53-.67v28.62c-11.97.78-23.95 1.44-36.03 2zm-75.722 5.99.111-38.27c8.98-.11 18.071-.22 27.051-.44l-.111 38.26c-8.98.22-18.071.34-27.051.45zm199.782-69.437c-77.83 8.318-158.651 12.09-238.252 11.646l-.111 76.531c79.601.45 160.423-3.33 238.243-11.64 34.37-5.77 41.47-55.352 17.85-71.99-7.65-5.324-14.96-4.769-17.73-4.547z" fill="#01ffff"/><path d="m1230.59 364.141c-4.32.443-5.43-5.768-2.66-9.206 2.55-3.217 6.43-1.775 6.77 2.551.33 3.216-1.67 6.322-4.11 6.655zm0-15.196c-4.32.444-5.43-5.768-2.66-9.206 2.55-3.217 6.43-1.775 6.77 2.551.33 3.106-1.67 6.212-4.11 6.655zm3.55-18.301c-1.22 2.44-2.88 2.773-3.44 2.995-1.55.111-2.77-.555-3.54-1.997 2.44-.333 4.76-.776 7.09-1.109-.11 0-.11.111-.11.111zm-275.164 38.71c-.665 7.542-5.654 20.741-20.288 21.74-17.739-.888-24.834-21.407-17.184-36.159 11.53 0 23.06-.222 34.589-.444 2.439 4.659 3.326 9.65 2.883 14.863zm287.584 9.761c0-15.196.11-35.494.11-50.689-18.74 3.216-38.14 6.211-58.43 8.984-92.9 12.423-191.348 18.079-288.133 17.525l-.111 50.689c96.785.444 195.234-5.213 288.024-17.636 20.29-2.662 39.8-5.657 58.54-8.873z" fill="#25a9e0" opacity=".3608"/><path d="m944.674 1037.3c-2.106-.11-2.771-3-1.33-4.33.554-.55 1.109-.55 1.33-.55 4.102-.11 8.094-.11 12.196-.23 2.106.12 2.771 2.89 1.33 4.33-.554.56-1.109.56-1.33.56-3.992 0-8.094.11-12.196.22zm0-7.88c-2.106-.11-2.771-2.99-1.33-4.32.554-.56 1.109-.56 1.33-.56 4.102-.11 8.094-.11 12.196-.22 2.106.11 2.771 2.99 1.33 4.33-.554.55-1.109.55-1.33.55-3.992.11-8.094.11-12.196.22zm.111-7.87c-2.106-.11-2.771-3-1.33-4.33.554-.55 1.109-.55 1.33-.55 4.102-.11 8.093-.11 12.195-.23 2.107.12 2.772 2.89 1.331 4.33-.555.55-1.109.55-1.331.55-4.102.12-8.204.23-12.195.23zm19.845-13.31c-9.091.22-18.071.33-27.051.44l-.111 38.27c8.98-.11 18.071-.23 27.051-.45z" fill="#fff"/><path d="m1030.48 1019.11c-6.98.77-8.42 10.53-3.66 14.08 4.77 3.55 11.09-1.77 9.98-8.32-.55-3.55-3.21-5.99-6.32-5.76z" fill="#fff"/><path d="m1030.48 1036.3c-8.42 0-10.64-11.2-5.21-16.75s13.42-1.44 13.42 6.66c0 5.32-3.66 9.87-8.21 10.09zm4.77-28.17c-3.1.22-6.32.33-9.42.55-1.56.22-2.55 1.44-2.55 3.22-3.33.22-6.65.33-9.98.44v28.62c12.08-.56 24.06-1.22 36.14-2v-28.62c-3.88.23-7.65.45-11.53.67-.11-2-1.44-2.88-2.66-2.88z" fill="#fff"/><path d="m1102.21 1020.99c-4.32.11-5.43-5.54-2.66-8.54 2.77-2.88 6.76-1 6.76 3.22 0 2.77-1.88 5.21-4.1 5.32zm-.22-17.08c-10.86 1.55-12.86 19.63-.22 31.39v.22l.11-.11.11.11c0-.22.22-.44.33-.66 3.22-3.55 8.54-10.76 8.54-20.41 0-4.22-2.33-10.87-8.87-10.54z" fill="#fefbf4"/><path d="m959.974 821.23c-4.213-.443-3.991-5.545-1.885-7.209.665-.555 1.33-.666 1.885-.777 39.8-.887 79.486-2.773 118.846-5.767 4.1.221 3.99 5.324 1.88 7.209-.66.555-1.33.666-1.88.777-39.25 2.994-79.046 4.88-118.846 5.767zm149.666-29.615c-55.54 5.103-112.416 7.986-168.957 8.763-3.436.444-5.21 2.551-5.543 6.544l-.111 36.603c.111 1.22.111 1.331.333 2.107l11.419-15.75c2.993.665 7.095 1.553 10.089 2.329.554-1.331 1.33-2.662 3.215-2.773 39.8-.887 79.485-2.773 118.845-5.768 4.66.444 3.66 5.879 1.55 7.432-.44.333-1.11.555-1.55.555-33.26 2.551-66.85 4.325-100.442 5.324l17.184 3.66-22.284 8.762c45.672-1.22 91.352-3.882 136.252-8.097 3.33-.665 5.1-2.994 5.43-6.987l.11-36.603c-.66-5.879-4.43-6.101-5.54-6.101z" fill="#01ffff"/><path d="m946.67 829.882-11.419 15.75-17.738 24.513c16.74-6.212 39.024-14.42 55.654-20.853l22.283-8.762-17.184-3.66c-6.097.221-12.306.332-18.403.443-3.437-.332-3.659-3.771-3.215-5.213z" fill="#01ffff"/><path d="m1078.82 807.476c-39.36 2.995-79.046 4.881-118.846 5.768-4.213.555-3.991 5.768-1.885 7.321.665.554 1.33.554 1.885.665 39.8-.887 79.486-2.773 118.846-5.767 4.21-.777 3.99-5.99 1.88-7.432-.11-.111-.77-.665-1.88-.555z" fill="#01bdbd"/><path d="m1078.82 823.67c-39.36 2.995-79.046 4.881-118.846 5.768-4.435.776-3.88 6.211-1.663 7.542.332.222.776.444 1.663.444 6.097-.111 12.306-.333 18.403-.444 33.593-.998 67.183-2.773 100.443-5.324 4.21-.776 3.99-5.989 1.88-7.431-.11-.111-.88-.666-1.88-.555z" fill="#01bdbd"/><path d="m936.027 645.205-18.071 24.956c16.741-6.211 39.024-14.419 55.654-20.852-10.421.333-20.843.554-31.375.665-2.882-.111-4.989-1.774-6.208-4.769z" fill="#01ffff"/><path d="m960.306 631.673c-4.213-.444-3.991-5.546-1.884-7.21.665-.554 1.33-.665 1.884-.776 39.804-.888 79.494-2.773 118.844-5.768 4.1.222 3.99 5.324 1.89 7.21-.67.554-1.33.665-1.89.776-39.24 2.995-79.04 4.88-118.844 5.768zm.111-16.305c-4.213-.444-3.991-5.546-1.885-7.21.666-.554 1.331-.665 1.885-.776 39.803-.887 79.493-2.773 118.843-5.768 4.11.222 3.99 5.324 1.89 7.21-.67.554-1.33.665-1.89.776-39.35 2.995-79.15 4.992-118.843 5.768zm0-20.187c-4.213-.444-3.991-5.546-1.885-7.32.666-.555 1.331-.666 1.885-.777 39.803-.887 79.493-2.773 118.843-5.768 4.11.222 3.88 5.324 1.89 7.21-.67.555-1.33.776-1.89.776-39.24 3.106-79.04 5.103-118.843 5.879zm148.223-31.944c-54.65 4.991-110.529 7.764-166.183 8.541-4.213.554-6.541 3.216-6.984 8.207l-.111 61.892c.222 4.77 2.882 7.764 6.873 8.097 10.422-.111 20.843-.333 31.375-.665 45.23-1.22 90.47-3.882 134.92-7.876 4.21-.887 6.43-3.771 6.88-8.762l.11-61.892c-.67-7.32-5.44-7.653-6.88-7.542z" fill="#01ffff"/><path d="m1079.26 581.427c-39.35 2.995-79.04 4.881-118.843 5.768-4.213.555-3.991 5.768-1.885 7.321.666.554 1.331.554 1.885.665 39.803-.887 79.493-2.773 118.843-5.768 4.11-.776 3.99-5.989 1.89-7.431-.11-.111-.89-.555-1.89-.555z" fill="#01bdbd"/><path d="m1079.26 601.615c-39.35 2.994-79.04 4.88-118.843 5.767-4.213.555-3.991 5.768-1.885 7.321.666.554 1.331.554 1.885.665 39.803-.887 79.493-2.773 118.843-5.768 4.22-.776 3.99-5.989 1.89-7.431-.11-.111-.89-.554-1.89-.554z" fill="#01bdbd"/><path d="m1079.26 617.808c-39.35 2.995-79.04 4.881-118.843 5.768-4.213.555-3.991 5.768-1.885 7.32.666.555 1.331.555 1.885.666 39.803-.887 79.493-2.773 118.843-5.768 4.22-.776 3.99-5.989 1.89-7.431-.22-.111-.89-.555-1.89-.555z" fill="#01bdbd"/><path d="m1079.82 500.347c-4.44-.222-4.21-5.657-2-7.542.67-.666 1.44-.777 2-.888 36.58-2.772 72.72-6.544 108.09-11.313 1.22-.111 2.44-.333 3.66-.555 4.21 0 3.99 5.435 1.88 7.432-.66.665-1.33.887-1.88.998-1.22.222-2.44.333-3.66.555-35.37 4.769-71.51 8.54-108.09 11.313zm0-19.078c-2.22-.111-3.33-1.331-3.55-3.993v-1.552c.22-2.552 1.44-4.104 3.55-4.437 36.58-2.773 72.72-6.544 108.09-11.314.67-.111 1.44-.222 2.11-.332 2.1 0 3.21 1.22 3.43 3.771v1.553c-.22 2.662-1.33 4.104-3.43 4.658-.67.111-1.33.222-2.11.333-35.37 4.769-71.51 8.54-108.09 11.313zm0-21.296c-2.11 0-3.44-1.553-3.55-3.993v-.887c.11-2.44 1.55-4.215 3.55-4.437 16.74-1.331 33.37-2.773 49.89-4.436 1.99-.111 3.43 1.442 3.54 3.882v.887c-.11 2.44-1.44 4.215-3.54 4.548-16.52 1.663-33.15 3.105-49.89 4.436zm130.04-42.037c-7.2 1.109-14.52 2.107-21.84 3.105-40.35 5.435-81.71 9.539-123.5 12.423-5.54.998-6.65 5.657-6.76 8.43l-.11 70.432c.22 4.548 2.88 7.543 6.65 7.432 40.35-2.773 80.26-6.766 119.18-11.868l-19.29-5.546 42.12-17.636c2.78 4.104 6.43 9.65 9.21 13.754.44-1.442.44-1.775.55-3.217l.11-70.432c-.22-5.103-3.44-7.21-6.32-6.877z" fill="#fff"/><path d="m1206.31 484.708-42.12 17.636 19.29 5.545c14.08 3.993 32.81 9.207 46.78 13.089l-14.74-22.406z" fill="#fff"/><path d="m1129.71 446.219c-16.52 1.664-33.15 3.217-49.89 4.437-2.11.333-3.44 1.997-3.55 4.437v.887c.11 2.44 1.44 3.993 3.55 3.993 16.74-1.331 33.37-2.773 49.89-4.437 1.99-.332 3.43-2.107 3.54-4.547v-.887c-.11-2.884-1.88-3.993-3.54-3.883z" fill="#d9d9d9"/><path d="m1190.02 459.64c-.67.111-1.33.222-2.11.333-35.36 4.77-71.51 8.541-108.09 11.314-2.22.443-3.33 1.885-3.55 4.436v1.553c.22 2.551 1.33 3.882 3.55 3.993 36.58-2.773 72.73-6.544 108.09-11.313.67-.111 1.44-.222 2.11-.333 2.1-.555 3.21-2.107 3.43-4.659v-1.552c-.33-3.772-2.66-3.882-3.43-3.772z" fill="#d9d9d9"/><path d="m1191.57 480.049c-1.22.222-2.44.333-3.66.555-35.37 4.769-71.51 8.541-108.09 11.313-4.44.888-4.21 6.323-2 7.876.67.554 1.44.554 2 .554 36.58-2.773 72.72-6.544 108.09-11.313 1.22-.111 2.44-.333 3.66-.555 4.21-1.109 3.99-6.544 1.88-7.986-.11 0-.77-.555-1.88-.444z" fill="#d9d9d9"/><path d="m1079.37 741.813c-4.43-.221-4.21-5.656-1.99-7.542.66-.665 1.44-.776 1.99-.887 36.59-2.773 72.73-6.544 108.1-11.314 1.22-.111 2.44-.333 3.66-.554 4.21 0 3.99 5.435 1.88 7.431-.66.666-1.33.887-1.88.998-1.22.222-2.44.333-3.66.555-35.37 4.769-71.51 8.541-108.1 11.313zm0-19.077c-2.21-.111-3.32-1.331-3.54-3.993v-1.553c.22-2.551 1.44-4.104 3.54-4.437 36.59-2.773 72.73-6.544 108.1-11.313.66-.111 1.44-.222 2.1-.333 2.11 0 3.22 1.22 3.44 3.771v1.553c-.22 2.662-1.33 4.104-3.44 4.658-.66.111-1.33.222-2.1.333-35.37 4.77-71.51 8.541-108.1 11.314zm0-21.296c-2.1 0-3.43-1.553-3.54-3.993v-.888c.11-2.44 1.55-4.215 3.54-4.436 16.75-1.331 33.37-2.773 49.89-4.437 2-.111 3.44 1.442 3.55 3.882v.887c-.11 2.441-1.44 4.215-3.55 4.548-16.52 1.664-33.14 3.106-49.89 4.437zm130.05-42.038c-7.21 1.109-14.52 2.107-21.84 3.106-40.36 5.435-81.71 9.539-123.5 12.422-5.55.999-6.66 5.657-6.77 8.43l-.11 70.433c.22 4.547 2.88 7.542 6.65 7.431 40.36-2.773 80.27-6.766 119.18-11.868l-19.29-5.546 42.13-17.636c2.77 4.104 6.43 9.65 9.2 13.754.45-1.442.45-1.775.56-3.217l.11-70.432c-.22-5.102-3.44-7.21-6.32-6.877z" fill="#fff"/><path d="m1205.87 726.174-42.13 17.636 19.29 5.546c14.08 3.993 32.82 9.206 46.79 13.088l-14.75-22.405z" fill="#fff"/><path d="m1129.26 687.686c-16.52 1.664-33.14 3.217-49.89 4.437-2.1.332-3.43 1.996-3.54 4.436v.888c.11 2.44 1.44 3.993 3.54 3.993 16.75-1.331 33.37-2.773 49.89-4.437 2-.333 3.44-2.107 3.55-4.548v-.887c-.11-2.884-1.88-3.993-3.55-3.882z" fill="#d9d9d9"/><path d="m1189.57 701.107c-.66.111-1.33.222-2.1.333-35.37 4.769-71.51 8.541-108.1 11.313-2.21.444-3.32 1.886-3.54 4.437v1.553c.22 2.551 1.33 3.882 3.54 3.993 36.59-2.773 72.73-6.544 108.1-11.314.66-.11 1.44-.221 2.1-.332 2.11-.555 3.22-2.108 3.44-4.659v-1.553c-.33-3.771-2.66-3.771-3.44-3.771z" fill="#d9d9d9"/><path d="m1191.13 721.627c-1.22.221-2.44.332-3.66.554-35.37 4.77-71.51 8.541-108.1 11.314-4.43.887-4.21 6.322-1.99 7.875.66.554 1.44.554 1.99.554 36.59-2.772 72.73-6.544 108.1-11.313 1.22-.111 2.44-.333 3.66-.555 4.21-1.109 3.99-6.544 1.88-7.986-.11-.111-.78-.554-1.88-.443z" fill="#d9d9d9"/><path d="m1079.04 927.711c-4.43-.222-4.21-5.657-1.99-7.543.66-.665 1.44-.776 1.99-.887 36.59-2.773 72.73-6.544 108.09-11.314 1.22-.111 2.44-.332 3.66-.554 4.22 0 3.99 5.435 1.89 7.431-.67.666-1.33.888-1.89.999-1.22.221-2.44.332-3.66.554-35.36 4.77-71.5 8.541-108.09 11.314zm0-19.078c-2.22-.111-3.32-1.331-3.55-3.993v-1.553c.23-2.551 1.45-4.104 3.55-4.437 36.59-2.773 72.73-6.544 108.09-11.313.67-.111 1.45-.222 2.11-.333 2.11 0 3.22 1.22 3.44 3.771v1.553c-.22 2.662-1.33 4.104-3.44 4.659-.66.111-1.33.221-2.11.332-35.36 4.77-71.5 8.541-108.09 11.314zm0-21.296c-2.1 0-3.43-1.553-3.55-3.993v-.888c.12-2.44 1.56-4.214 3.55-4.436 16.74-1.331 33.37-2.773 49.89-4.437 2-.111 3.44 1.442 3.55 3.882v.888c-.11 2.44-1.44 4.214-3.55 4.547-16.52 1.664-33.15 3.217-49.89 4.437zm130.05-41.927c-7.21 1.109-14.53 2.108-21.84 3.106-40.36 5.435-81.71 9.539-123.51 12.423-5.54.998-6.65 5.656-6.76 8.429l-.11 70.433c.22 4.547 2.88 7.542 6.65 7.431 40.36-2.773 80.27-6.766 119.18-11.868l-19.29-5.546 42.13-17.636c2.77 4.104 6.43 9.65 9.2 13.754.44-1.442.44-1.775.55-3.217l.12-70.432c-.23-5.213-3.44-7.21-6.32-6.877z" fill="#fff"/><path d="m1205.54 912.182-42.13 17.636 19.29 5.546c14.08 3.993 32.82 9.206 46.78 13.088l-14.74-22.405z" fill="#fff"/><path d="m1128.93 873.583c-16.52 1.664-33.15 3.217-49.89 4.437-2.1.333-3.43 1.996-3.55 4.437v.887c.12 2.44 1.45 3.993 3.55 3.993 16.74-1.331 33.37-2.773 49.89-4.437 2-.332 3.44-2.107 3.55-4.547v-.888c-.11-2.884-1.89-3.993-3.55-3.882z" fill="#d9d9d9"/><path d="m1189.24 887.115c-.66.111-1.33.222-2.11.333-35.36 4.769-71.5 8.54-108.09 11.313-2.22.444-3.32 1.886-3.55 4.437v1.553c.23 2.551 1.33 3.882 3.55 3.993 36.59-2.773 72.73-6.544 108.09-11.314.67-.111 1.45-.222 2.11-.332 2.11-.555 3.22-2.108 3.44-4.659v-1.553c-.33-3.882-2.77-3.882-3.44-3.771z" fill="#d9d9d9"/><path d="m1190.79 907.524c-1.22.222-2.44.333-3.66.555-35.36 4.769-71.5 8.54-108.09 11.313-4.43.887-4.21 6.322-1.99 7.875.66.555 1.44.555 1.99.555 36.59-2.773 72.73-6.544 108.09-11.314 1.22-.111 2.44-.333 3.66-.554 4.22-1.11 3.99-6.544 1.89-7.986-.11-.111-.89-.555-1.89-.444z" fill="#d9d9d9"/><path d="m958.976 369.354c-1.774 20.187-22.505 29.06-34.59 14.863-6.652-7.764-7.76-19.743-2.882-29.282 11.53 0 23.06-.222 34.59-.444 2.439 4.659 3.325 9.65 2.882 14.863z" fill="#fff"/><path d="m1203.21 991.155c-9.53 1.997-5.99 21.405 2.88 27.955 5.55 3.99 16.74 4.21 15.86-2.11-1-6.66-6.88-10.54-9.76-6.32-.67 1.11-1.11 2.66-1.11 4.43-7.2-.77-8.76-6.43-9.09-9.76 1.22-.33 2.66-.11 3.77-.88.22-.23 1.11-1 1.55-2.56 1-4.211-1-9.978-1.99-10.533-.45-.222-1.44-.333-2.11-.222z" fill="#01ffff"/><path d="m1234.14 330.644c-1.66 3.549-5.43 3.993-6.98.887 2.44-.332 4.76-.776 7.09-1.109-.11.111-.11.222-.11.222z" fill="#fff"/><path d="m1230.59 338.075c-4.54.999-5.43 8.097-2.32 10.316 3.1 2.218 7.2-1.997 6.43-6.655-.34-2.441-2.11-3.993-4.11-3.661z" fill="#fff"/><path d="m1230.59 353.271c-4.54.998-5.43 8.097-2.32 10.315 3.1 2.219 7.2-1.996 6.43-6.655-.45-2.44-2.11-3.882-4.11-3.66z" fill="#fff"/><path d="m564.521 884.675c-.222-.998-.444-1.997-.555-3.439l.111-61.891c.333-4.881 2.328-7.21 5.876-7.099 46.896 8.097 97.339 14.53 149.889 19.078 3.991.887 6.097 3.66 6.541 8.651l-.111 61.892c-.444 4.991-2.55 7.431-6.541 7.542-42.683-3.66-83.924-8.651-123.06-14.641-14.19 3.55-32.926 8.43-47.117 11.868zm113.525-92.283c-3.77-.888-5.876-3.771-6.209-8.652l.111-70.321c.444-4.77 2.439-7.21 6.209-7.21 46.008 4.991 94.013 8.43 143.015 10.426 4.102.666 6.208 3.328 6.652 8.208l-.111 70.322c-.111.998-.111 1.885-.555 3.105l15.965 25.289c-14.745-6.544-34.479-15.195-49.224-21.961-39.579-2.108-78.381-5.102-115.853-9.206zm178.27-197.654c-117.073-2.773-229.933-14.531-325.165-33.941l-.887 455.763.111-62.673c95.343 19.411 208.092 31.057 325.165 33.941l.554-305.244c-117.073-2.773-229.933-14.53-325.165-33.941l.111-86.182c95.343 19.41 208.092 31.056 325.165 33.94z" fill="#25a9e0" opacity=".2"/><path d="m827.602 645.981h.554c2.883-.111 4.878-2.329 5.1-5.878v-7.875c.554 0 1.109 0 1.663.11v7.876c-.222 4.658-2.882 7.653-6.763 7.764-.221 0-.443 0-.554 0v7.986c-.887 0-1.663-.111-2.55-.111v-7.986c-.222 0-.554 0-.776 0-3.88-.333-6.541-3.66-6.652-8.319v-7.875c.555 0 1.109 0 1.663.111v7.875c.111 3.438 2.107 5.879 4.989 6.211h.776c.776.111 1.663.111 2.55.111zm-267.959-21.296c-7.982-2.551-9.423-10.759-9.534-15.417v-5.102c.332-7.654 4.213-12.423 9.645-11.869 68.736 12.423 145.454 21.075 225.387 25.622 9.313 1.664 11.086 9.65 11.197 14.198v5.102c-.332 7.764-4.878 12.977-11.308 12.977-79.933-4.326-156.651-12.977-225.387-25.511zm266.518 18.856c-3.437-.333-5.654-3.216-5.876-7.209v-13.311c.333-6.544 6.097-8.651 9.645-4.991 1.996 1.997 2.107 4.659 2.107 5.435v13.31c-.111 5.102-3.548 6.877-5.876 6.766zm30.155-47.14c-117.073-2.773-229.933-14.53-325.165-33.94l-.111 86.182c95.343 19.411 208.092 31.057 325.165 33.941z" fill="#25a9e0" opacity=".3608"/><path d="m826.271 616.255c-3.436.111-5.654 2.773-5.875 6.766v13.31c.221 6.766 6.651 9.207 9.977 5.324 1.552-1.885 1.663-3.993 1.774-4.88v-13.31c-.222-5.102-3.658-7.099-5.876-7.21z" fill="#fff"/><path d="m819.287 631.784c-.554 0-1.109 0-1.663-.111v7.875c.222 4.658 2.772 7.875 6.652 8.319h.776v-1.997c-.222 0-.554 0-.776 0-2.883-.333-4.878-2.773-4.989-6.211zm15.632.554c-.555 0-1.109 0-1.663-.111v7.876c-.111 3.438-2.107 5.767-5.1 5.878-.222 0-.443 0-.554 0v1.997h.554c3.88-.111 6.541-3.106 6.763-7.765z" fill="#fff"/><path d="m827.602 645.981c-.887 0-1.663-.111-2.55-.111v1.997 7.986c.887 0 1.663.111 2.55.111v-7.986z" fill="#fff"/><path d="m564.521 884.675-15.078 22.072c14.191-3.549 33.038-8.318 47.118-11.868-9.091-1.442-17.96-2.884-26.829-4.436-2.329-.666-4.102-2.552-5.211-5.768z" fill="#01ffff"/><path d="m585.252 875.025c-3.769-1.109-3.547-6.877-1.108-7.875.332-.111.776-.111 1.108-.111 34.036 5.546 69.734 10.204 106.652 13.865 3.88.887 3.658 5.989 1.774 7.431-.666.444-1.22.444-1.774.555-36.918-3.661-72.616-8.319-106.652-13.865zm0-16.194c-3.769-1.109-3.547-6.877-1.108-7.875.332-.111.776-.111 1.108-.111 34.036 5.546 69.734 10.204 106.652 13.865 3.88.887 3.658 5.989 1.774 7.431-.666.444-1.22.444-1.774.555-36.918-3.771-72.616-8.43-106.652-13.865zm0-20.298c-3.769-1.109-3.547-6.876-1.108-7.875.332-.111.776-.111 1.108-.111 34.036 5.546 69.734 10.205 106.652 13.865 3.88.887 3.658 5.989 1.774 7.431-.666.444-1.22.444-1.774.555-36.807-3.66-72.616-8.319-106.652-13.865zm134.7-7.209c-52.549-4.548-102.993-10.981-149.888-19.078-3.548-.111-5.433 2.218-5.876 7.099l-.111 61.891c.111 1.775.665 7.765 5.765 9.207 8.758 1.552 17.738 2.994 26.829 4.436 39.135 6.101 80.488 10.981 123.06 14.641 3.991-.111 6.208-2.662 6.541-7.542l.111-61.892c-.111-5.546-3.326-8.43-6.431-8.762z" fill="#01ffff"/><path d="m692.015 844.523c-36.918-3.66-72.617-8.319-106.652-13.865-3.658-.111-3.437 5.102-1.663 6.988.555.666 1.22.776 1.663.998 34.035 5.546 69.734 10.205 106.652 13.865 3.88-.111 3.769-5.324 1.773-7.099-.111-.222-.776-.776-1.773-.887z" fill="#01bdbd"/><path d="m692.015 864.71c-36.918-3.661-72.617-8.319-106.652-13.865-3.658-.111-3.437 5.102-1.663 6.988.555.665 1.22.776 1.663.998 34.035 5.546 69.734 10.204 106.652 13.865 3.88-.111 3.769-5.324 1.773-7.099-.221-.111-.887-.776-1.773-.887z" fill="#01bdbd"/><path d="m691.904 880.904c-36.918-3.661-72.616-8.319-106.652-13.865-3.658-.111-3.436 5.102-1.663 6.988.555.665 1.22.776 1.663.998 34.036 5.546 69.734 10.205 106.652 13.865 3.88-.111 3.769-5.324 1.774-7.099-.111-.111-.777-.776-1.774-.887z" fill="#01bdbd"/><path d="m692.458 775.643c-4.102-.887-3.88-6.322-1.884-7.875.665-.554 1.33-.554 1.884-.554 35.588 3.549 72.284 6.322 109.645 8.097 4.324.776 4.102 6.211 1.996 7.764-.666.554-1.442.554-1.996.665-37.361-1.774-74.057-4.547-109.645-8.097zm0-19.077c-1.995-.444-3.104-1.997-3.326-4.548v-1.553c.222-2.551 1.331-3.771 3.326-3.882 35.033 3.549 71.175 6.211 107.982 7.986 2.106.333 3.326 1.775 3.548 4.326v1.553c-.222 2.551-1.331 3.882-3.548 4.104-36.696-1.775-72.838-4.437-107.982-7.986zm.111-21.296c-1.885-.333-3.215-2.108-3.326-4.548v-.887c.111-2.441 1.441-3.993 3.326-3.883 15.743 1.553 31.596 2.995 47.783 4.215 1.995.222 3.326 1.997 3.436 4.437v.887c-.11 2.44-1.441 3.993-3.436 3.993-16.187-1.22-32.04-2.662-47.783-4.214zm128.603-18.635c-49.002-1.885-97.007-5.435-143.015-10.426-5.211.111-6.098 4.548-6.209 7.21l-.111 70.321c.222 4.548 2.661 7.986 6.209 8.652 37.472 3.993 76.274 7.099 115.853 9.206l-19.512-9.095 43.015-9.761c2.883 4.659 6.874 10.87 9.756 15.528.333-1.22.444-1.663.555-3.105l.111-70.322c-.222-5.435-3.659-7.986-6.652-8.208z" fill="#fff"/><path d="m817.292 782.742-43.016 9.761 19.512 9.095c14.745 6.655 34.368 15.528 49.224 21.962l-15.964-25.29z" fill="#fff"/><path d="m740.351 730.167c-16.075-1.22-32.039-2.662-47.782-4.214-1.885-.111-3.215 1.442-3.326 3.882v.887c.111 2.44 1.441 4.215 3.326 4.548 15.743 1.552 31.596 2.994 47.782 4.214 1.996 0 3.326-1.552 3.437-3.993v-.887c-.111-2.773-1.884-4.215-3.437-4.437z" fill="#d9d9d9"/><path d="m800.551 754.569c-36.807-1.775-72.949-4.437-107.982-7.986-1.995 0-3.104 1.331-3.326 3.882v1.553c.222 2.551 1.331 4.104 3.326 4.548 35.033 3.549 71.175 6.211 107.982 7.986 2.106-.111 3.326-1.442 3.548-4.104v-1.553c-.444-3.771-2.883-4.215-3.548-4.326z" fill="#d9d9d9"/><path d="m802.103 775.311c-37.361-1.775-74.057-4.437-109.645-8.097-4.102.111-3.88 5.545-1.884 7.542.665.665 1.33.776 1.884.887 35.588 3.55 72.284 6.323 109.645 8.097 4.324-.333 4.102-5.767 1.996-7.653-.111-.111-.887-.666-1.996-.776z" fill="#d9d9d9"/><path d="m785.141 618.03c-80.044-4.436-156.652-13.088-225.387-25.622-7.983-.332-9.424 7.321-9.646 11.869v5.102c.111 4.658 1.663 12.755 9.535 15.417 68.736 12.423 145.454 21.074 225.387 25.622 9.312-.665 11.086-8.43 11.308-12.977v-5.102c-.444-10.538-7.206-13.976-11.197-14.309z" fill="#fff"/><path d="m837.801 1046.28c-4.878-.44-5.875-7.43-2.55-9.98 3.216-2.44 7.428.78 7.096 5.21-.222 2.77-2.218 4.77-4.546 4.77zm.111-15.31c-4.878-.44-5.876-7.43-2.55-9.98 3.215-2.44 7.428.78 7.096 5.22-.333 2.77-2.329 4.88-4.546 4.76zm0-15.19c-4.878-.44-5.876-7.43-2.55-9.98 3.215-2.44 7.428.77 7.096 5.21-.222 2.77-2.218 4.77-4.546 4.77zm-275.83 6.32c-19.291-4.77-21.951-38.154-7.982-46.251 13.525-7.875 29.046 12.644 24.39 32.391-2.218 9.42-8.98 15.19-16.408 13.86zm293.458-34.272c-117.073-2.773-229.933-14.53-325.165-33.941l-.111 62.673v13.86c95.343 19.41 208.092 31.06 325.165 33.94z" fill="#01ffff"/><g fill="#fff"><path d="m562.193 974.407c-18.071-1.997-21.952 27.733-9.535 41.923 10.532 12.09 25.166 5.11 26.497-12.64 1.108-13.866-6.763-27.509-16.962-29.283z"/><path d="m837.912 1004.91c-4.656.11-5.987 6.43-2.882 9.54 2.993 2.99 7.427.66 7.427-3.99 0-3-1.995-5.44-4.545-5.55z"/><path d="m837.912 1020.1c-4.656.12-5.876 6.44-2.882 9.54 2.993 3 7.428.67 7.428-3.99 0-2.88-2.107-5.43-4.546-5.55z"/><path d="m837.912 1035.41c-4.656.11-5.876 6.43-2.882 9.54 2.993 2.99 7.428.67 7.428-3.99 0-3-2.107-5.44-4.546-5.55z"/></g><path d="m1303.76 168.594s-1.33 23.514-29.37 28.838c0 0 .66-14.419-12.42-14.419s-24.17 16.971-23.51 27.508c.67 10.537 56.88 13.088 74.51-34.052 17.62-47.14-15.08-45.809-20.29-41.816-5.21 3.882-16.96 40.485 11.08 33.941z" fill="#01ffff"/><path d="m463.967 792.503c10.199-1.442 17.405-11.092 15.853-21.296l-5.099-35.272c-1.442-10.204-11.087-17.414-21.286-15.861-10.2 1.442-17.406 11.092-15.854 21.296l5.1 35.272c1.441 10.204 11.086 17.303 21.286 15.861z" fill="#fff"/><path d="m437.36 765.217 3.104 20.963c1.33 8.763 9.423 14.974 18.292 13.643l12.417-1.774c8.758-1.331 14.967-9.428 13.636-18.302l-3.104-20.963 5.322-.776 3.104 20.963c1.663 11.757-6.43 22.627-18.182 24.402l-12.417 1.774c-11.751 1.664-22.616-6.433-24.39-18.19l-3.104-20.963z" fill="#fff"/><path d="m468.643 798.397-8.119 1.181 3.861 26.563 8.119-1.181z" fill="#fff"/></g></svg>